<svg width="351" height="351" viewBox="0 0 351 351" fill="none" xmlns="http://www.w3.org/2000/svg">
<g style="mix-blend-mode:overlay">
<path d="M240.022 303.155L239.845 302.787L240.52 302.325L238.636 298.561L238.486 299.806L237.627 303.524L237.71 303.73L238.413 303.505L238.59 303.874L236.517 304.925L236.341 304.556L236.907 304.157L234.587 299.45L233.927 299.686L233.75 299.317L235.866 298.277L236.042 298.646L235.433 299.034L237.348 302.852L237.475 301.693L238.357 297.889L238.2 297.617L237.443 297.874L237.266 297.505L239.381 296.465L239.558 296.834L238.949 297.221L241.268 301.929L241.917 301.735L242.094 302.104L240.022 303.155Z" fill="#313131"/>
<path d="M234.894 305.5C234.665 305.669 234.502 305.763 234.339 305.857C234.176 305.951 234.013 306.045 233.862 306.096C233.233 306.387 232.693 306.517 232.253 306.446C231.814 306.374 231.505 306.153 231.309 305.687C231.144 305.276 231.107 304.899 231.253 304.525C231.399 304.151 231.662 303.854 232 303.623C231.534 303.82 231.114 303.845 230.728 303.741C230.354 303.595 230.1 303.344 229.924 302.975C229.665 302.401 229.651 301.938 229.863 301.49C230.075 301.041 230.544 300.662 231.281 300.309C231.595 300.163 231.898 300.061 232.135 300.033C232.384 299.961 232.621 299.933 232.761 299.925C232.901 299.916 232.998 299.897 233.041 299.908L233.491 301.314L233.122 301.491L232.449 300.576C232.138 300.538 231.792 300.629 231.326 300.826C230.969 300.96 230.771 301.182 230.691 301.482C230.611 301.782 230.659 302.116 230.824 302.528C230.969 302.842 231.181 303.082 231.469 303.205C231.757 303.329 232.134 303.292 232.6 303.095L233.12 302.867L233.328 303.29L232.863 303.487C232.657 303.57 232.482 303.706 232.296 303.886C232.153 304.077 232.053 304.28 231.996 304.494C231.981 304.72 231.998 305 232.112 305.26C232.246 305.617 232.468 305.815 232.725 305.883C232.982 305.952 233.274 305.893 233.631 305.759C233.848 305.633 234.054 305.551 234.186 305.402C234.317 305.254 234.394 305.137 234.417 305.051L234.258 304.274L234.736 304.035L235.34 305.207C235.286 305.238 235.123 305.332 234.894 305.5Z" fill="#313131"/>
<path d="M228.033 307.977L228.713 307.838L228.878 308.25L227.806 308.651C227.643 308.745 227.395 308.816 227.135 308.93C226.874 309.044 226.712 309.138 226.603 309.201C225.888 309.469 225.317 309.545 224.932 309.442C224.546 309.338 224.249 309.075 224.096 308.621C223.962 308.264 223.925 307.887 224.06 307.555C224.152 307.213 224.415 306.916 224.741 306.728C224.232 306.913 223.801 306.981 223.427 306.835C223.052 306.689 222.756 306.425 222.602 305.971C222.374 305.451 222.415 304.957 222.681 304.477C222.947 303.998 223.47 303.587 224.336 303.268C224.542 303.185 224.694 303.134 224.888 303.094C225.288 302.972 225.548 302.858 225.645 302.838L226.674 302.425L226.796 302.825L226.156 303.159L228.033 307.977ZM224.47 303.625C223.95 303.853 223.613 304.084 223.435 304.404C223.258 304.724 223.306 305.058 223.428 305.458C223.593 305.869 223.804 306.11 224.093 306.233C224.381 306.356 224.758 306.319 225.224 306.123C225.744 305.895 226.09 305.804 226.253 305.71L225.367 303.361C225.185 303.358 224.924 303.472 224.47 303.625ZM225.941 306.361L225.529 306.526C225.172 306.66 224.932 306.871 224.809 307.159C224.685 307.448 224.691 307.77 224.867 308.139C225.001 308.496 225.212 308.736 225.458 308.848C225.703 308.96 226.081 308.923 226.546 308.727C226.752 308.644 226.915 308.55 227.121 308.467L227.284 308.373L226.449 306.176C226.341 306.238 226.189 306.29 225.941 306.361Z" fill="#313131"/>
<path d="M221.345 311.006L220.479 311.325L216.689 306.453L216.16 306.54L216.038 306.14L218.158 305.423L218.28 305.823L217.652 306.114L218.419 307.192L220.745 306.392L220.724 305.101L220.001 305.228L219.878 304.828L221.793 304.193L221.915 304.594L221.438 304.833L221.345 311.006ZM220.449 309.893L220.88 310.514L220.818 309.717L220.747 306.897L218.724 307.595L220.449 309.893Z" fill="#313131"/>
<path d="M214.757 306.807C215.271 306.945 215.665 307.188 216.013 307.603C216.361 308.018 216.643 308.506 216.794 309.143C216.956 309.738 216.99 310.298 216.883 310.866C216.777 311.434 216.522 311.871 216.15 312.231C215.779 312.59 215.333 312.884 214.781 313.057C214.381 313.18 213.853 313.268 213.25 313.29L212.97 313.307L212.629 311.838L213.18 311.664L213.702 312.63C213.788 312.653 213.959 312.699 214.142 312.702C214.325 312.705 214.573 312.634 214.865 312.575C215.21 312.484 215.493 312.284 215.702 312.019C215.911 311.753 216.057 311.379 216.075 310.971C216.092 310.562 216.047 310.045 215.905 309.548C215.763 309.051 215.566 308.585 215.293 308.236C215.019 307.887 214.733 307.581 214.402 307.447C214.071 307.312 213.674 307.252 213.274 307.374C212.983 307.434 212.765 307.559 212.657 307.622C212.548 307.684 212.417 307.833 212.339 307.95L212.238 308.841L211.71 308.929L211.568 307.743C211.665 307.723 211.828 307.629 212.046 307.504C212.22 307.367 212.383 307.273 212.589 307.19C212.752 307.096 213 307.025 213.249 306.954C213.726 306.715 214.243 306.67 214.757 306.807Z" fill="#313131"/>
<path d="M208.408 313.37C208.239 313.829 207.984 314.266 207.678 314.551C207.318 314.868 206.938 315.087 206.506 315.155C205.966 315.286 205.472 315.246 205.055 315.088C204.638 314.93 204.256 314.644 203.951 314.241C203.646 313.838 203.406 313.361 203.298 312.735C203.159 312.055 203.137 311.452 203.232 310.927C203.338 310.358 203.593 309.922 203.922 309.551C204.251 309.18 204.674 308.972 205.171 308.83C205.711 308.699 206.217 308.697 206.677 308.866C207.136 309.035 207.476 309.309 207.792 309.67C208.098 310.073 208.337 310.55 208.445 311.176L209.762 310.886L209.211 308.489L208.499 308.574L208.42 308.185L210.677 307.642L210.757 308.031L210.096 308.267L211.302 313.364L211.959 313.311L212.038 313.7L209.835 314.211L209.756 313.822L210.416 313.586L209.904 311.383L208.576 311.716C208.586 312.361 208.534 312.898 208.408 313.37ZM207.476 313.763C207.668 313.217 207.669 312.529 207.459 311.6C207.257 310.812 206.966 310.183 206.564 309.8C206.162 309.416 205.702 309.247 205.119 309.367C204.579 309.497 204.262 309.825 204.081 310.328C203.901 310.83 203.931 311.573 204.141 312.502C204.343 313.29 204.591 313.908 204.993 314.291C205.384 314.717 205.855 314.843 206.352 314.701C206.924 314.625 207.284 314.308 207.476 313.763Z" fill="#313131"/>
<path d="M198.819 313.004C198.565 312.752 198.194 312.423 197.803 311.997C197.518 311.691 197.35 311.462 197.201 311.331C197.053 311.199 196.936 311.122 196.85 311.099L196.539 311.062L196.459 310.673L197.474 310.486C197.614 310.477 197.774 310.566 197.953 310.752C198.133 310.938 198.418 311.244 198.723 311.647C199.103 312.116 199.388 312.422 199.642 312.673C199.853 312.914 200.056 313.014 200.25 312.974L200.779 312.886L200.356 310.523L199.613 310.554L199.534 310.165L201.799 309.762L201.867 310.194L201.219 310.387L202.132 315.544L202.821 315.545L202.889 315.977L200.677 316.348L200.632 315.831L201.292 315.595L200.881 313.189L200.158 313.317L198.887 316.006L199.587 315.964L199.655 316.395L197.626 316.77L197.558 316.339L198.207 316.145L199.587 313.393C199.361 313.379 199.084 313.213 198.819 313.004Z" fill="#313131"/>
<path d="M195.054 311.123C195.502 311.335 195.83 311.652 196.07 312.129C196.32 312.564 196.494 313.115 196.602 313.741C196.71 314.367 196.646 314.947 196.454 315.492C196.273 315.994 195.976 316.42 195.616 316.736C195.212 317.042 194.789 317.25 194.218 317.326C193.355 317.462 192.627 317.267 192.119 316.764C191.611 316.26 191.247 315.566 191.145 314.574C191.049 313.906 191.112 313.326 191.293 312.824C191.485 312.278 191.771 311.896 192.143 311.536C192.546 311.231 193.012 311.035 193.54 310.947C194.112 310.87 194.606 310.911 195.054 311.123ZM195.402 315.991C195.637 315.457 195.724 314.791 195.61 313.843C195.517 312.991 195.269 312.374 194.89 311.905C194.511 311.436 194.051 311.267 193.523 311.355C192.994 311.443 192.602 311.705 192.367 312.239C192.133 312.773 192.035 313.481 192.159 314.387C192.252 315.238 192.5 315.856 192.891 316.282C193.239 316.696 193.687 316.908 194.259 316.832C194.764 316.83 195.167 316.524 195.402 315.991Z" fill="#313131"/>
<path d="M189.928 317.232L190.605 317.276L190.63 317.696L189.499 317.806C189.316 317.803 189.067 317.874 188.787 317.891C188.496 317.95 188.313 317.947 188.216 317.967C187.462 318.04 186.882 317.977 186.531 317.745C186.18 317.513 185.992 317.187 185.935 316.713C185.898 316.336 186.002 315.951 186.168 315.674C186.334 315.397 186.671 315.166 187.071 315.044C186.554 315.089 186.114 315.017 185.763 314.785C185.412 314.553 185.235 314.184 185.21 313.764C185.177 313.205 185.303 312.733 185.686 312.331C186.069 311.929 186.687 311.681 187.624 311.611C187.818 311.571 188.001 311.574 188.226 311.589C188.646 311.563 188.926 311.547 189.012 311.57L190.143 311.459L190.168 311.879L189.488 312.019L189.928 317.232ZM187.68 312.085C187.12 312.119 186.709 312.284 186.5 312.549C186.248 312.803 186.156 313.146 186.224 313.577C186.25 313.997 186.395 314.311 186.629 314.466C186.863 314.621 187.249 314.724 187.723 314.667C188.283 314.634 188.66 314.597 188.811 314.546L188.606 312.058C188.434 312.012 188.154 312.028 187.68 312.085ZM188.382 315.119L187.908 315.176C187.531 315.213 187.216 315.358 187.062 315.592C186.907 315.826 186.815 316.169 186.852 316.546C186.889 316.923 186.991 317.226 187.225 317.38C187.459 317.535 187.802 317.627 188.276 317.57C188.471 317.53 188.696 317.545 188.902 317.462L189.096 317.423L188.899 315.074C188.759 315.083 188.619 315.091 188.382 315.119Z" fill="#313131"/>
<path d="M176.698 318.462L176.673 318.042L177.396 317.914L177.236 312.684L176.431 312.606L176.406 312.186L178.762 312.129L178.787 312.549L178.076 312.633L178.224 317.907L180.903 317.844L180.756 312.571L179.993 312.504L179.968 312.084L182.324 312.027L182.35 312.447L181.681 312.543L181.84 317.774L182.549 317.872L182.574 318.292L176.698 318.462Z" fill="#313131"/>
<path d="M174.711 312.512C175.093 312.798 175.41 313.159 175.595 313.667C175.792 314.133 175.868 314.705 175.879 315.35C175.846 315.984 175.74 316.553 175.474 317.032C175.208 317.512 174.879 317.883 174.444 318.133C174.01 318.384 173.513 318.527 173.007 318.529C172.136 318.525 171.485 318.213 171.031 317.678C170.589 317.101 170.376 316.355 170.371 315.344C170.361 314.698 170.521 314.098 170.788 313.619C171.054 313.139 171.394 312.725 171.829 312.475C172.263 312.224 172.76 312.081 173.309 312.091C173.857 312.1 174.328 312.226 174.711 312.512ZM174.371 317.379C174.68 316.911 174.864 316.226 174.879 315.312C174.871 314.483 174.732 313.803 174.45 313.315C174.168 312.826 173.731 312.571 173.183 312.562C172.634 312.553 172.2 312.803 171.891 313.272C171.582 313.74 171.386 314.468 171.371 315.382C171.367 316.253 171.475 316.879 171.8 317.379C172.082 317.868 172.519 318.123 173.067 318.132C173.596 318.044 174.019 317.836 174.371 317.379Z" fill="#313131"/>
<path d="M167.722 314.266C167.886 313.484 168.078 312.938 168.364 312.556C168.507 312.365 168.638 312.216 168.801 312.122C168.964 312.028 169.158 311.989 169.341 311.992C169.61 312.018 169.793 312.021 169.921 312.055L169.92 312.744C169.792 312.709 169.566 312.695 169.298 312.669C169.212 312.646 169.115 312.666 169.006 312.728C168.898 312.791 168.832 312.865 168.766 312.939C168.271 313.587 168.001 314.938 167.87 316.969L167.826 317.646L168.792 317.813L168.774 318.221L163.895 317.924L163.913 317.515L164.71 317.453L165.056 312.221L164.219 312.088L164.237 311.68L166.805 311.863L166.787 312.271L165.905 312.31L165.558 317.543L167.278 317.636L167.344 316.874C167.468 315.897 167.57 315.006 167.722 314.266Z" fill="#313131"/>
<path d="M162.368 317.285L163.053 317.469L162.993 317.866L158.708 317.406L158.741 316.084L159.236 316.124L159.383 316.944L161.465 317.227L161.731 314.865L160.346 314.723L160.162 315.408L159.711 315.379L159.904 313.457L160.356 313.486L160.386 314.229L161.76 314.413L162.017 311.912L159.632 311.732L159.088 312.734L158.597 312.51L158.987 311.054L163.626 311.562L163.565 311.959L162.877 311.958L162.368 317.285Z" fill="#313131"/>
<path d="M155.411 316.523L156.839 316.676L157.383 314.985L157.909 315.08L157.452 317.299L152.249 316.502L152.48 314.268L153.005 314.363L153.029 316.16L154.477 316.41L155.243 311.152L154.075 310.885L154.135 310.488L157.311 310.972L157.251 311.369L156.165 311.308L155.411 316.523Z" fill="#313131"/>
<path d="M149.403 312.388L149.8 312.448C149.952 312.397 150.137 312.217 150.292 311.983C150.446 311.749 150.71 311.452 150.941 311.101C151.173 310.75 151.382 310.485 151.525 310.294C151.668 310.102 151.777 310.04 151.862 310.063L152.999 310.275L152.939 310.672L152.604 310.72C152.507 310.74 152.41 310.76 152.278 310.909C152.158 311.014 151.961 311.237 151.752 311.502C151.478 311.842 151.269 312.107 151.083 312.287C150.885 312.509 150.723 312.604 150.517 312.686C150.879 312.875 151.133 313.127 151.279 313.441C151.424 313.755 151.461 314.133 151.389 314.572C151.259 315.226 150.962 315.652 150.55 315.817C150.096 315.971 149.536 316.004 148.796 315.852C148.625 315.806 148.454 315.76 148.197 315.691C147.94 315.622 147.725 315.565 147.597 315.531L146.417 315.306L146.478 314.909L147.198 314.964L148.209 309.818L147.45 309.569L147.51 309.172L149.955 309.643L149.894 310.04L149.089 309.962L148.686 312.15L149.403 312.388ZM148.257 315.294C148.514 315.363 148.728 315.42 148.899 315.466C149.339 315.538 149.662 315.533 149.934 315.376C150.205 315.219 150.371 314.943 150.455 314.46C150.527 314.02 150.49 313.643 150.29 313.36C150.091 313.077 149.814 312.911 149.385 312.796C148.946 312.724 148.646 312.644 148.506 312.652L148.011 315.183L148.257 315.294Z" fill="#313131"/>
<path d="M143.488 314.246L144.924 314.539L145.597 312.883L146.154 313.032L145.483 315.194L140.394 313.968L140.808 311.738L141.322 311.875L141.163 313.669L142.577 314.048L143.783 308.862L142.638 308.509L142.741 308.124L145.891 308.876L145.787 309.261L144.682 309.103L143.488 314.246Z" fill="#313131"/>
<path d="M138.077 307.195C138.437 307.567 138.633 308.033 138.721 308.562C138.809 309.09 138.746 309.67 138.574 310.312C138.413 310.912 138.092 311.423 137.721 311.782C137.337 312.185 136.86 312.424 136.363 312.566C135.823 312.697 135.329 312.657 134.772 312.507C134.343 312.393 133.895 312.181 133.33 311.891L133.084 311.78L133.603 310.358L134.16 310.507L134.056 311.581C134.119 311.69 134.236 311.767 134.396 311.856C134.555 311.944 134.801 312.056 135.058 312.125C135.401 312.217 135.723 312.211 136.069 312.12C136.372 312.018 136.709 311.787 136.941 311.436C137.216 311.096 137.428 310.648 137.565 310.134C137.703 309.62 137.787 309.137 137.773 308.675C137.759 308.212 137.637 307.812 137.449 307.486C137.26 307.16 136.952 306.94 136.524 306.825C136.224 306.745 136.01 306.687 135.827 306.684C135.644 306.681 135.493 306.732 135.384 306.795L134.835 307.474L134.344 307.251L134.868 306.152C134.996 306.186 135.179 306.189 135.405 306.204C135.631 306.218 135.813 306.221 135.996 306.225C136.179 306.228 136.436 306.296 136.693 306.365C137.25 306.515 137.729 306.781 138.077 307.195Z" fill="#313131"/>
<path d="M129.766 310.799L129.912 310.425L130.737 310.6L132.127 306.611L131.147 307.358L127.897 309.38L127.839 309.594L128.533 309.918L128.387 310.292L126.205 309.523L126.351 309.149L127.005 309.279L128.702 304.316L128.052 304.004L128.198 303.63L130.422 304.41L130.276 304.784L129.536 304.631L128.134 308.663L129.061 307.947L132.408 305.906L132.489 305.606L131.752 305.271L131.898 304.897L134.122 305.677L133.976 306.051L133.279 305.91L131.582 310.872L132.191 311.173L132.044 311.547L129.766 310.799Z" fill="#313131"/>
<path d="M121.161 307.621L121.906 305.525L122.451 305.717L122.047 307.399L123.734 308.126L125.699 303.19L124.355 302.554L124.501 302.18L127.579 303.372L127.433 303.746L126.533 303.505L124.633 308.367L125.433 308.811L125.287 309.185L121.161 307.621Z" fill="#313131"/>
<path d="M120.017 306.58L120.559 306.954L120.413 307.328L118.32 306.4L118.466 306.026L119.152 306.21L120.068 304.16L117.356 302.974L116.439 305.024L117.024 305.411L116.878 305.785L114.828 304.868L114.975 304.494L115.617 304.666L117.731 299.861L117.134 299.518L117.28 299.144L119.33 300.06L119.184 300.434L118.51 300.208L117.494 302.46L120.206 303.646L121.223 301.394L120.583 301.039L120.729 300.665L122.865 301.604L122.719 301.978L122.088 301.763L120.017 306.58Z" fill="#313131"/>
<path d="M112.034 303.476L111.223 303.076L111.993 296.946L111.568 296.649L111.757 296.286L113.741 297.277L113.552 297.64L112.878 297.413L112.674 298.69L114.86 299.781L115.758 298.828L115.13 298.43L115.319 298.067L117.101 298.958L116.912 299.32L116.409 299.14L112.034 303.476ZM112.144 302.037L111.992 302.777L112.518 302.183L114.489 300.14L112.59 299.172L112.144 302.037Z" fill="#313131"/>
<path d="M108.739 297.268C109.222 296.663 109.66 296.23 110.051 295.967C110.268 295.842 110.42 295.791 110.614 295.751C110.797 295.754 110.968 295.8 111.171 295.9C111.417 296.012 111.565 296.143 111.682 296.221L111.424 296.84C111.307 296.763 111.147 296.674 110.87 296.508C110.796 296.442 110.71 296.419 110.613 296.439C110.516 296.459 110.419 296.479 110.31 296.542C109.616 296.907 108.769 298.011 107.739 299.801L107.395 300.397L108.203 300.981L108.014 301.344L103.783 298.971L103.972 298.608L104.72 298.9L107.282 294.307L106.58 293.844L106.769 293.481L109.05 294.735L108.861 295.098L108.082 294.751L105.531 299.301L107.013 300.111L107.379 299.429C107.78 298.618 108.255 297.873 108.739 297.268Z" fill="#313131"/>
<path d="M96.0974 294.248L96.3292 293.897L97.0658 294.232L99.8619 289.794L99.2569 289.31L99.4887 288.959L101.564 290.296L101.332 290.647L100.638 290.323L97.8421 294.761L98.4471 295.245L98.2153 295.596L96.0974 294.248ZM101.872 294.969C101.287 294.583 100.939 294.168 100.786 293.714C100.632 293.259 100.715 292.777 101.036 292.266C101.368 291.712 101.814 291.418 102.342 291.331C102.871 291.243 103.428 291.392 104.024 291.735C104.098 291.801 104.184 291.824 104.258 291.89C104.333 291.956 104.407 292.021 104.492 292.044C104.758 292.253 104.992 292.408 105.183 292.551L106.162 293.18L105.93 293.531L105.279 293.219L102.483 297.658L103.003 298.118L102.771 298.469L100.727 297.187L100.959 296.836L101.738 297.183L102.777 295.533L101.872 294.969ZM104.28 292.493C104.206 292.427 104.089 292.35 103.887 292.249C103.493 292.006 103.107 291.903 102.761 291.994C102.416 292.085 102.121 292.327 101.824 292.752C101.58 293.146 101.489 293.489 101.58 293.835C101.671 294.181 101.913 294.475 102.307 294.718L103.052 295.193L104.566 292.799C104.472 292.636 104.398 292.57 104.28 292.493Z" fill="#313131"/>
<path d="M93.1953 291.542L93.6603 292.034L93.4285 292.385L91.5906 291.021L91.8223 290.67L92.4618 291.024L93.8265 289.187L91.4463 287.447L90.0816 289.285L90.5466 289.777L90.3148 290.128L88.5197 288.775L88.7515 288.423L89.3595 288.724L92.4639 284.506L91.9874 284.057L92.2192 283.706L94.0571 285.071L93.8253 285.422L93.2287 285.078L91.7867 287.033L94.1669 288.773L95.6089 286.818L95.0583 286.303L95.29 285.952L97.1708 287.328L96.939 287.679L96.3424 287.336L93.1953 291.542Z" fill="#313131"/>
<path d="M86.0569 286.829L85.3464 286.226L87.4129 280.398L87.0649 279.983L87.3281 279.687L89.0689 281.071L88.7942 281.411L88.2091 281.024L87.7478 282.232L89.6683 283.803L90.7775 283.09L90.2696 282.587L90.5328 282.29L92.0824 283.531L91.8192 283.828L91.3396 283.562L86.0569 286.829ZM86.5099 285.481L86.2291 286.187L86.861 285.713L89.2109 284.139L87.5557 282.778L86.5099 285.481Z" fill="#313131"/>
<path d="M81.052 281.861L81.6424 282.571L81.3793 282.867L79.7272 281.323L81.4225 277.737L81.955 276.778L81.0516 277.408L77.63 279.384L76.0093 277.893L76.2725 277.597L77.0373 278.169L80.1103 273.896L79.6254 273.307L79.8885 273.011L81.6461 274.675L81.383 274.972L80.7665 274.531L78.4892 277.548L77.4993 278.844L78.5855 278.216L82.6358 275.95L83.0381 276.334L81.3053 280.231L80.5808 281.735L81.7933 280.637L84.6328 278.092L84.0622 277.48L84.3254 277.184L85.9461 278.674L85.6829 278.971L85.1093 278.541L81.052 281.861Z" fill="#313131"/>
<path d="M73.6928 275.574L73.0481 274.896L75.8083 269.392L75.5146 268.946L75.8206 268.661L77.364 270.268L77.058 270.554L76.4844 270.124L75.8517 271.286L77.5864 273.037L78.7583 272.432L78.3162 271.855L78.6222 271.57L80.0287 273.002L79.7227 273.288L79.2975 272.99L73.6928 275.574ZM74.3171 274.272L73.9506 274.955L74.6452 274.59L77.1947 273.299L75.6827 271.746L74.3171 274.272Z" fill="#313131"/>
<path d="M70.8951 271.795L71.2515 272.349L70.9455 272.634L70.2067 271.794C70.0583 271.662 69.9214 271.488 69.7731 271.356C69.5505 271.159 69.3394 270.919 69.1597 270.733C68.6319 270.132 68.3612 269.601 68.3475 269.138C68.3337 268.675 68.577 268.281 69.0146 267.848C69.3634 267.574 69.7007 267.343 70.0778 267.306C70.4664 267.227 70.8634 267.287 71.2374 267.433C71.6114 267.579 71.951 267.854 72.2677 268.214C72.3732 268.334 72.4788 268.454 72.5843 268.575C72.6899 268.695 72.7526 268.803 72.7954 268.815L74.1823 267.58L73.4664 266.653L73.7724 266.368L75.6095 268.421L75.3035 268.706L74.7842 268.246L70.8951 271.795ZM71.9502 268.542C71.6649 268.236 71.3024 268.047 70.9482 267.998C70.5941 267.949 70.1283 268.146 69.6907 268.58C69.3304 268.896 69.1529 269.216 69.1582 269.539C69.1636 269.862 69.3402 270.23 69.6569 270.591C69.7624 270.711 69.9108 270.842 70.0592 270.974C70.1334 271.04 70.2075 271.105 70.2389 271.16L72.4665 269.186C72.3609 269.066 72.1927 268.837 71.9502 268.542Z" fill="#313131"/>
<path d="M71.0312 263.751C71.1191 264.279 71.0357 264.762 70.7695 265.242C70.5461 265.733 70.1514 266.178 69.671 266.6C69.1906 267.022 68.6704 267.25 68.1419 267.338C67.6133 267.426 67.0649 267.417 66.5738 267.193C66.0713 267.013 65.6461 266.715 65.2667 266.246C64.9929 265.897 64.6992 265.451 64.4285 264.92L64.3146 264.66L65.5239 263.744L65.8719 264.159L65.1911 264.986C65.211 265.084 65.2194 265.224 65.302 265.429C65.396 265.592 65.5215 265.809 65.6897 266.038C65.9322 266.333 66.2091 266.499 66.5517 266.591C66.8944 266.682 67.2715 266.646 67.6715 266.523C68.0716 266.401 68.5061 266.15 68.9207 265.802C69.3353 265.454 69.6527 265.126 69.896 264.732C70.1393 264.338 70.2854 263.964 70.2916 263.599C70.2977 263.233 70.1639 262.876 69.9329 262.538C69.7647 262.31 69.5734 262.167 69.4251 262.035C69.2767 261.903 69.1482 261.869 69.0082 261.877L68.1538 262.154L67.8601 261.708L68.892 261.112C68.9662 261.178 69.1146 261.309 69.3058 261.452C69.497 261.595 69.6569 261.684 69.8052 261.816C69.9536 261.947 70.0905 262.122 70.3131 262.319C70.7468 262.756 70.9861 263.234 71.0312 263.751Z" fill="#313131"/>
<path d="M57.2952 255.388L57.6326 255.157L58.1488 255.8L61.6737 253.439L60.4368 253.429L56.6353 253.053L56.4609 253.19L56.7829 253.873L56.4455 254.104L55.1767 252.157L55.5141 251.926L55.9791 252.418L60.3416 249.501L60.0081 248.861L60.3455 248.63L61.6571 250.588L61.3198 250.819L60.8349 250.23L57.2557 252.623L58.4069 252.61L62.294 253.009L62.5656 252.852L62.2008 252.157L62.5381 251.926L63.8498 253.885L63.5124 254.116L63.0589 253.581L58.6964 256.498L58.987 257.127L58.6497 257.358L57.2952 255.388Z" fill="#313131"/>
<path d="M54.3104 250.594C54.1306 250.408 53.9937 250.234 53.8453 250.102C53.697 249.971 53.6457 249.819 53.5402 249.699C53.1953 249.102 53.0102 248.593 52.9965 248.13C52.9827 247.667 53.2031 247.359 53.6376 247.108C54.0177 246.889 54.4063 246.809 54.7918 246.913C55.1773 247.016 55.4855 247.236 55.7708 247.542C55.52 247.108 55.4091 246.665 55.5124 246.279C55.6157 245.894 55.836 245.586 56.1734 245.355C56.6736 245.03 57.2022 244.942 57.6619 245.111C58.1216 245.28 58.5667 245.675 59.0172 246.392C59.1739 246.664 59.3307 246.935 59.4018 247.184C59.4729 247.432 59.5556 247.638 59.6068 247.79C59.658 247.941 59.6779 248.038 59.6664 248.081L58.3546 248.694L58.1351 248.313L58.9329 247.563C58.9276 247.24 58.7938 246.883 58.5314 246.491C58.3433 246.166 58.0779 245.957 57.8094 245.931C57.541 245.905 57.1524 245.984 56.7722 246.204C56.4892 246.403 56.2918 246.626 56.1686 246.914C56.0883 247.214 56.1678 247.603 56.4301 247.994L56.7552 248.495L56.3635 248.757L56.1127 248.322C55.9872 248.105 55.8389 247.974 55.6477 247.831C55.4564 247.687 55.2423 247.63 55.0166 247.616C54.791 247.601 54.5424 247.672 54.2708 247.829C53.945 248.017 53.7904 248.251 53.7216 248.508C53.6956 248.777 53.7552 249.068 53.9433 249.394C54.0687 249.611 54.2056 249.786 54.3655 249.874C54.5139 250.006 54.6424 250.04 54.7395 250.02L55.4968 249.764L55.7905 250.21L54.7241 250.934C54.6385 250.911 54.5329 250.791 54.3104 250.594Z" fill="#313131"/>
<path d="M50.9989 244.106L51.2352 244.766L50.8665 244.943L50.3136 243.922C50.2195 243.759 50.0941 243.542 49.9258 243.313C49.7575 243.085 49.6635 242.922 49.6008 242.813C49.236 242.118 49.1052 241.578 49.1228 241.17C49.1833 240.773 49.4036 240.465 49.8381 240.214C50.2068 240.037 50.5525 239.946 50.8952 240.038C51.2494 240.087 51.5576 240.307 51.8 240.602C51.5607 240.125 51.4498 239.682 51.5531 239.296C51.6564 238.911 51.8767 238.602 52.2997 238.394C52.7885 238.112 53.3056 238.067 53.7966 238.291C54.2991 238.471 54.7642 238.963 55.223 239.82C55.3171 239.983 55.3997 240.189 55.4938 240.352C55.6704 240.721 55.7844 240.981 55.8586 241.047L56.3801 242.013L56.0114 242.189L55.6122 241.623L50.9989 244.106ZM52.3499 241.805L52.1419 241.382C51.9537 241.056 51.7427 240.816 51.4428 240.736C51.143 240.655 50.8516 240.715 50.4829 240.892C50.157 241.08 49.9168 241.291 49.8479 241.548C49.7791 241.805 49.8701 242.151 50.0781 242.574C50.1721 242.737 50.2976 242.954 50.3916 243.117L50.4857 243.28L52.5694 242.185C52.5694 242.185 52.4753 242.022 52.3499 241.805ZM54.8972 240.009C54.615 239.52 54.3297 239.214 53.9985 239.079C53.6673 238.945 53.333 238.993 52.9529 239.212C52.5727 239.432 52.3325 239.643 52.295 239.954C52.2575 240.265 52.3056 240.6 52.5565 241.034C52.8387 241.523 52.984 241.837 53.0781 242L55.2818 240.8C55.2191 240.692 55.1052 240.432 54.8972 240.009Z" fill="#313131"/>
<path d="M47.1677 237.846L46.7517 237L51.0844 232.651L50.9422 232.154L51.3109 231.978L52.2883 233.984L51.9196 234.161L51.5318 233.552L50.5596 234.439L51.6195 236.651L52.9138 236.447L52.6889 235.744L53.0576 235.567L53.9096 237.357L53.5409 237.533L53.2472 237.087L47.1677 237.846ZM48.143 236.776L47.5426 237.303L48.3197 237.144L51.1338 236.751L50.1878 234.798L48.143 236.776Z" fill="#313131"/>
<path d="M50.4922 230.748C50.4088 231.231 50.1854 231.722 49.8565 232.093C49.5275 232.464 49.0158 232.832 48.4413 233.091C47.8669 233.35 47.2955 233.427 46.7585 233.375C46.2216 233.323 45.719 233.142 45.2938 232.844C44.8685 232.547 44.532 232.089 44.3041 231.569C44.1389 231.158 43.9967 230.661 43.8774 230.078L43.8178 229.786L45.2467 229.251L45.4746 229.771L44.5712 230.401C44.5482 230.487 44.5451 230.67 44.5849 230.864C44.6246 231.058 44.6958 231.307 44.8097 231.567C44.955 231.881 45.1546 232.164 45.4743 232.342C45.794 232.519 46.1367 232.611 46.5567 232.586C46.9766 232.561 47.4623 232.461 47.9825 232.234C48.4483 232.037 48.8828 231.786 49.2431 231.47C49.6034 231.153 49.8237 230.845 49.927 230.459C50.0731 230.085 50.0364 229.708 49.8598 229.339C49.7458 229.079 49.6204 228.862 49.5149 228.742C49.4093 228.622 49.3038 228.502 49.1324 228.456L48.2184 228.44L48.0761 227.943L49.2533 227.662C49.3161 227.77 49.4101 227.933 49.547 228.108C49.6839 228.282 49.8323 228.414 49.9264 228.577C50.0204 228.74 50.1459 228.957 50.2598 229.217C50.4877 229.737 50.5756 230.266 50.4922 230.748Z" fill="#313131"/>
<path d="M43.195 225.258C42.7124 225.174 42.2642 224.963 41.9246 224.688C41.585 224.413 41.3227 224.022 41.1689 223.567C40.9839 223.059 40.9273 222.584 41.0536 222.113C41.1798 221.642 41.3803 221.237 41.7406 220.92C42.1123 220.56 42.5468 220.31 43.1098 220.093C43.7699 219.857 44.3413 219.78 44.8898 219.79C45.4267 219.842 45.9292 220.022 46.3117 220.308C46.6941 220.595 46.9993 220.998 47.1958 221.464C47.3809 221.972 47.4259 222.489 47.3425 222.972C47.2591 223.455 47.0158 223.848 46.6441 224.208C46.2723 224.567 45.8263 224.861 45.2633 225.078L45.7474 226.355L48.0422 225.501L47.8717 224.766L48.2717 224.644L49.0632 226.83L48.6632 226.953L48.3297 226.312L43.4373 228.123L43.5764 228.803L43.1764 228.926L42.3734 226.782L42.7734 226.66L43.1069 227.3L45.2502 226.497L44.7661 225.22C44.2261 225.35 43.6662 225.384 43.195 225.258ZM42.6819 224.432C43.2387 224.581 43.9501 224.496 44.8274 224.134C45.5962 223.835 46.1508 223.479 46.5027 223.022C46.8545 222.566 46.938 222.083 46.7529 221.574C46.5678 221.066 46.1854 220.78 45.6714 220.642C45.1574 220.504 44.4346 220.632 43.5687 220.951C42.7999 221.25 42.2453 221.606 41.9049 222.02C41.553 222.477 41.4811 222.916 41.6661 223.425C41.7969 223.965 42.1679 224.294 42.6819 224.432Z" fill="#313131"/>
<path d="M42.3865 215.768C42.6068 215.46 42.8929 215.077 43.2876 214.632C43.5508 214.335 43.7481 214.113 43.8912 213.921C44.0228 213.773 44.0572 213.645 44.0801 213.559L44.0748 213.236L44.4749 213.114L44.8022 214.12C44.8649 214.228 44.7647 214.431 44.6216 214.622C44.4671 214.856 44.2039 215.153 43.8321 215.512C43.4374 215.958 43.12 216.286 42.9111 216.551C42.7023 216.816 42.6449 217.031 42.6961 217.182L42.8384 217.679L45.1415 216.965L45.0253 216.199L45.4254 216.077L46.1197 218.283L45.7197 218.405L45.4291 217.777L40.4227 219.327L40.519 219.996L40.1189 220.118L39.4559 217.967L39.856 217.844L40.1466 218.473L42.4498 217.759L42.225 217.056L39.3896 216.158L39.5172 216.881L39.1172 217.004L38.5054 215.003L38.9055 214.881L39.2076 215.467L42.1057 216.473C42.0545 216.322 42.1776 216.033 42.3865 215.768Z" fill="#313131"/>
<path d="M43.7335 211.767C43.5645 212.227 43.2783 212.609 42.8752 212.915C42.4721 213.22 41.9405 213.491 41.3461 213.653C40.7089 213.803 40.149 213.837 39.6236 213.742C39.0981 213.647 38.6613 213.392 38.2904 213.063C37.9194 212.734 37.6686 212.3 37.5378 211.76C37.3046 210.917 37.4026 210.209 37.8432 209.592C38.2724 209.019 38.9356 208.599 39.8757 208.346C40.5128 208.196 41.1156 208.174 41.6411 208.269C42.1665 208.363 42.6461 208.63 43.0171 208.959C43.388 209.288 43.6389 209.722 43.7696 210.262C43.9004 210.802 43.9026 211.308 43.7335 211.767ZM38.9306 212.73C39.476 212.922 40.1759 212.88 41.0617 212.658C41.8931 212.468 42.4905 212.123 42.8738 211.721C43.257 211.318 43.3948 210.804 43.2525 210.307C43.1218 209.767 42.7508 209.438 42.2055 209.246C41.6601 209.054 40.9174 209.085 40.0316 209.306C39.2002 209.497 38.6028 209.842 38.2195 210.244C37.8363 210.646 37.71 211.117 37.8408 211.657C38.0687 212.178 38.4281 212.549 38.9306 212.73Z" fill="#313131"/>
<path d="M37.0404 207.449L37.0824 208.149L36.6939 208.228L36.4438 207.105C36.4041 206.911 36.333 206.663 36.2618 206.414C36.1907 206.165 36.1081 205.96 36.0997 205.82C35.9407 205.043 35.9499 204.494 36.096 204.12C36.2422 203.746 36.5795 203.515 37.0224 203.404C37.411 203.325 37.7651 203.374 38.0963 203.508C38.416 203.686 38.67 203.937 38.8466 204.306C38.7159 203.766 38.7335 203.358 38.9225 202.995C39.1114 202.633 39.4488 202.402 39.8802 202.334C40.4202 202.203 40.9457 202.298 41.3595 202.638C41.7847 202.936 42.1182 203.576 42.2971 204.45C42.3368 204.645 42.3766 204.839 42.3735 205.022C42.4416 205.453 42.5127 205.702 42.5325 205.799L42.794 206.879L42.4055 206.958L42.1692 206.298L37.0404 207.449ZM38.9536 205.62L38.8427 205.177C38.7632 204.789 38.6064 204.517 38.3295 204.351C38.0955 204.197 37.7414 204.148 37.3413 204.27C36.9527 204.35 36.6812 204.506 36.5695 204.752C36.4578 204.997 36.4088 205.352 36.5082 205.837C36.5479 206.032 36.5877 206.226 36.6703 206.432L36.7215 206.583L39.0101 206.095C39.0331 206.009 38.9819 205.857 38.9536 205.62ZM41.8542 204.561C41.7234 204.021 41.5468 203.652 41.2385 203.432C40.9731 203.223 40.619 203.174 40.1761 203.285C39.7447 203.353 39.4617 203.553 39.35 203.798C39.1954 204.032 39.1778 204.441 39.2772 204.927C39.4079 205.467 39.4875 205.855 39.5387 206.007L41.9788 205.467C42.0132 205.338 41.9536 205.047 41.8542 204.561Z" fill="#313131"/>
<path d="M34.1278 194.503L34.5592 194.435L34.7841 195.138L39.961 194.321L39.9419 193.536L40.3733 193.468L40.7533 195.819L40.3219 195.887L40.1399 195.195L34.963 196.012L35.3911 198.698L40.6108 197.893L40.5918 197.107L41.0232 197.039L41.3603 199.379L40.9289 199.447L40.7354 198.798L35.5585 199.615L35.5462 200.346L35.1148 200.414L34.1278 194.503Z" fill="#313131"/>
<path d="M39.8213 191.759C39.6209 192.164 39.2491 192.524 38.8146 192.775C38.3802 193.025 37.8286 193.199 37.1716 193.252C36.5145 193.306 35.9347 193.242 35.4322 193.062C34.9297 192.881 34.5044 192.584 34.1993 192.181C33.8941 191.777 33.6976 191.312 33.6525 190.795C33.5592 189.943 33.7544 189.215 34.2577 188.707C34.761 188.199 35.487 187.889 36.4783 187.787C37.1353 187.734 37.7151 187.797 38.2177 187.978C38.7202 188.158 39.1454 188.456 39.4934 188.871C39.7986 189.274 39.9951 189.74 40.0402 190.257C40.1052 190.871 40.0218 191.353 39.8213 191.759ZM34.9336 192.01C35.456 192.288 36.1329 192.331 37.0699 192.261C37.9213 192.168 38.5271 191.963 38.996 191.584C39.4534 191.247 39.6654 190.799 39.5889 190.227C39.5438 189.71 39.2387 189.307 38.7163 189.03C38.1939 188.752 37.4741 188.697 36.5799 188.778C35.7286 188.872 35.0799 189.065 34.6539 189.456C34.1964 189.793 34.0273 190.252 34.1038 190.824C34.1374 191.384 34.4425 191.787 34.9336 192.01Z" fill="#313131"/>
<path d="M37.1587 185.077C37.9213 185.144 38.5324 185.262 38.9378 185.462C39.1405 185.562 39.2889 185.694 39.3944 185.814C39.4885 185.977 39.5397 186.128 39.5795 186.323C39.5963 186.603 39.5932 186.785 39.5588 186.914L38.8903 187.01C38.8819 186.87 38.8849 186.687 38.8796 186.365C38.8597 186.268 38.8399 186.17 38.7657 186.105C38.6915 186.039 38.6173 185.973 38.5003 185.896C37.818 185.529 36.4328 185.388 34.3759 185.525L33.7189 185.579L33.692 186.536L33.2721 186.561L32.9666 181.704L33.3865 181.679L33.5455 182.456L38.779 182.114L38.8143 181.297L39.2342 181.272L39.4168 183.846L38.9968 183.871L38.8608 183.008L33.6388 183.308L33.7281 185.03L34.4708 185C35.5249 185.007 36.3961 185.011 37.1587 185.077Z" fill="#313131"/>
<path d="M33.4766 180.142L33.3786 180.851L32.9587 180.876L32.8696 176.583L34.1952 176.433L34.2089 176.896L33.4088 177.14L33.3948 179.248L35.7515 179.191L35.7103 177.803L35.002 177.705L34.9883 177.242L36.925 177.21L36.9387 177.673L36.2159 177.801L36.2028 179.22L38.6994 179.155L38.5566 176.775L37.4774 176.348L37.6151 175.834L39.0745 176.042L39.1575 180.701L38.7375 180.726L38.6527 180.014L33.4766 180.142Z" fill="#313131"/>
<path d="M33.3793 173.138L33.409 174.569L35.1568 174.9L35.1476 175.449L32.9026 175.26L33.0232 170.013L35.2827 169.976L35.2735 170.524L33.505 170.785L33.4375 172.236L38.7391 172.325L38.8348 171.111L39.2432 171.129L39.168 174.322L38.7595 174.305L38.6923 173.185L33.3793 173.138Z" fill="#313131"/>
<path d="M36.7266 166.644L36.709 167.052C36.8031 167.215 36.9515 167.347 37.2283 167.513C37.4624 167.667 37.7821 167.845 38.1875 168.045C38.5929 168.246 38.8697 168.412 39.0724 168.512C39.2751 168.612 39.3807 168.732 39.3577 168.818L39.2849 169.946L38.8765 169.928L38.8283 169.594C38.8085 169.497 38.7343 169.431 38.6287 169.311C38.4689 169.222 38.2776 169.079 37.9694 168.859C37.6069 168.67 37.3415 168.461 37.1074 168.307C36.8734 168.152 36.7365 167.978 36.6424 167.815C36.4963 168.189 36.2874 168.454 35.9501 168.685C35.6242 168.873 35.2785 168.964 34.8272 168.935C34.1503 168.892 33.702 168.68 33.4512 168.245C33.2003 167.811 33.1239 167.239 33.179 166.52C33.1821 166.337 33.228 166.165 33.254 165.897C33.2801 165.628 33.3375 165.414 33.3291 165.274L33.4248 164.06L33.8332 164.078L33.8753 164.778L39.1079 165.124L39.2288 164.33L39.6373 164.348L39.4772 166.83L39.0687 166.812L39.0612 165.984L36.8047 165.838L36.7266 166.644ZM33.674 165.872C33.6051 166.129 33.5906 166.354 33.5875 166.537C33.5584 166.988 33.6066 167.323 33.8176 167.563C34.0287 167.803 34.3171 167.926 34.8112 167.967C35.2625 167.996 35.6082 167.905 35.8913 167.705C36.1743 167.506 36.2661 167.163 36.3381 166.723C36.3672 166.272 36.3932 166.003 36.3534 165.809L33.7857 165.626L33.674 165.872Z" fill="#313131"/>
<path d="M34.0994 161.028L33.9891 162.467L35.7024 162.926L35.6504 163.463L33.4085 163.092L33.9803 157.874L36.2368 158.02L36.1847 158.557L34.4193 158.634L34.2119 160.094L39.4728 160.677L39.6971 159.498L40.094 159.558L39.7388 162.768L39.3419 162.708L39.3603 161.611L34.0994 161.028Z" fill="#313131"/>
<path d="M40.4658 154.745C40.1369 155.116 39.6909 155.41 39.1937 155.552C38.6965 155.694 38.0938 155.717 37.4826 155.599C36.8715 155.481 36.3261 155.289 35.9123 154.948C35.4985 154.608 35.1506 154.193 34.9655 153.685C34.7804 153.176 34.7353 152.659 34.8417 152.091C34.9137 151.651 35.0514 151.137 35.2863 150.603L35.398 150.357L36.8772 150.662L36.7709 151.23L35.6625 151.255C35.5967 151.329 35.5195 151.446 35.4193 151.649C35.3305 151.808 35.2617 152.065 35.2356 152.334C35.1866 152.688 35.2348 153.022 35.3801 153.337C35.5254 153.651 35.7793 153.903 36.1732 154.146C36.5243 154.378 36.9955 154.504 37.5638 154.61C38.0893 154.705 38.552 154.692 39.0263 154.635C39.4577 154.567 39.8692 154.402 40.1637 154.159C40.4582 153.917 40.6357 153.597 40.7077 153.157C40.7452 152.846 40.7597 152.62 40.7513 152.48C40.7429 152.341 40.6917 152.189 40.5976 152.026L39.8526 151.551L39.9904 151.037L41.1239 151.433C41.0895 151.561 41.1407 151.713 41.169 151.95C41.2087 152.144 41.1942 152.37 41.234 152.564C41.2737 152.758 41.2163 152.972 41.1788 153.284C41.0296 153.841 40.8062 154.332 40.4658 154.745Z" fill="#313131"/>
<path d="M35.8534 146.944L36.2504 147.005L36.1723 147.81L40.2989 148.687L39.4316 147.811L37.0186 144.824L36.8044 144.766L36.5665 145.483L36.1695 145.422L36.6378 143.161L37.0348 143.221L36.9911 143.898L42.1143 144.995L42.3408 144.321L42.7263 144.425L42.2465 146.729L41.861 146.626L41.9276 145.863L37.7154 144.964L38.5514 145.785L40.9957 148.827L41.2955 148.908L41.545 148.148L41.9419 148.209L41.4622 150.513L41.0652 150.453L41.1203 149.733L35.9971 148.636L35.7821 149.267L35.3851 149.206L35.8534 146.944Z" fill="#313131"/>
<path d="M37.9174 138.04L40.082 138.529L39.9328 139.085L38.2362 138.906L37.7114 140.694L42.8743 141.985L43.3388 140.595L43.7243 140.698L42.9178 143.879L42.5323 143.776L42.6876 142.853L37.6103 141.585L37.2951 142.419L36.9096 142.315L37.9174 138.04Z" fill="#313131"/>
<path d="M38.8103 136.765L38.5097 137.373L38.1242 137.27L38.8066 135.065L39.1921 135.168L39.0942 135.877L41.2557 136.548L42.1104 133.701L39.9488 133.03L39.6482 133.638L39.2627 133.535L39.9336 131.373L40.3192 131.476L40.2327 132.142L45.2411 133.667L45.4989 133.048L45.8844 133.151L45.2134 135.313L44.8279 135.209L44.9687 134.513L42.6358 133.796L41.7812 136.643L44.1141 137.36L44.3834 136.697L44.7689 136.8L44.0864 139.005L43.7009 138.902L43.8302 138.248L38.8103 136.765Z" fill="#313131"/>
<path d="M40.854 128.452L41.1807 127.575L47.3336 127.571L47.5998 127.092L47.9738 127.238L47.2286 129.334L46.8546 129.187L46.9954 128.491L45.6729 128.458L44.8703 130.768L45.9006 131.549L46.2127 130.898L46.5867 131.044L45.9417 132.937L45.5677 132.791L45.6626 132.265L40.854 128.452ZM42.328 128.434L41.5654 128.367L42.2247 128.819L44.4764 130.524L45.1986 128.514L42.328 128.434Z" fill="#313131"/>
<path d="M46.6658 124.408C47.3366 124.818 47.836 125.181 48.1098 125.53C48.2467 125.704 48.3293 125.91 48.3805 126.061C48.4203 126.256 48.3744 126.427 48.3285 126.598C48.2168 126.844 48.128 127.004 48.0508 127.121L47.4198 126.906C47.497 126.789 47.5544 126.575 47.6661 126.329C47.6891 126.243 47.7235 126.115 47.6921 126.061C47.6723 125.963 47.6095 125.855 47.5468 125.746C47.0734 125.114 45.8917 124.385 43.9788 123.642L43.3592 123.385L42.904 124.227L42.53 124.081L44.3378 119.561L44.7119 119.707L44.5053 120.478L49.3561 122.421L49.734 121.695L50.1081 121.842L49.1425 124.246L48.7685 124.099L48.9981 123.243L44.1472 121.3L43.4969 122.871L44.2021 123.151C45.1728 123.641 45.995 123.999 46.6658 124.408Z" fill="#313131"/>
<path d="M48.0229 117.289C48.3236 116.681 48.664 116.267 49.1298 116.07C49.5957 115.874 50.047 115.903 50.5808 116.138C51.1461 116.427 51.5484 116.81 51.6791 117.35C51.8214 117.847 51.7578 118.427 51.4572 119.035C51.4342 119.121 51.3684 119.195 51.3455 119.281C51.2797 119.355 51.2567 119.441 51.1795 119.558C51.0135 119.834 50.9018 120.08 50.7901 120.325L50.3318 121.35L49.9693 121.161L50.1957 120.488L45.4252 118.245L45.0389 118.83L44.6764 118.641L45.6702 116.475L46.0327 116.663L45.7718 117.466L47.5218 118.302L48.0229 117.289ZM48.0242 111.459L48.3867 111.647L48.1373 112.407L52.865 114.638L53.2742 113.967L53.6368 114.156L52.5772 116.397L52.2147 116.208L52.4641 115.449L47.7364 113.218L47.3272 113.889L46.9646 113.7L48.0242 111.459ZM50.8054 119.411C50.8712 119.337 50.9171 119.166 51.0059 119.006C51.2063 118.601 51.224 118.192 51.0901 117.835C50.9563 117.478 50.6595 117.215 50.2113 117.003C49.8059 116.802 49.3975 116.785 49.0946 116.887C48.7802 117.032 48.5285 117.286 48.3281 117.692L47.9815 118.471L50.5538 119.665C50.6624 119.603 50.7397 119.486 50.8054 119.411Z" fill="#313131"/>
<path d="M50.3045 108.259L49.8868 108.79L49.5243 108.601L50.655 106.609L51.0175 106.798L50.7482 107.46L52.7521 108.548L54.1835 105.947L52.1795 104.859L51.7619 105.39L51.3993 105.201L52.4757 103.24L52.8382 103.429L52.6233 104.06L57.2163 106.622L57.6339 106.091L57.9965 106.28L56.9086 108.284L56.5461 108.095L56.8154 107.433L54.6516 106.256L53.2202 108.857L55.384 110.034L55.8247 109.417L56.1872 109.606L55.045 111.641L54.6825 111.452L54.9403 110.833L50.3045 108.259Z" fill="#313131"/>
<path d="M54.1016 100.6L54.5881 99.812L60.6108 101.15L60.9513 100.737L61.3023 100.968L60.1089 102.852L59.7579 102.62L60.07 101.969L58.785 101.625L57.4914 103.712L58.3242 104.715L58.7962 104.153L59.1473 104.385L58.097 106.078L57.7459 105.846L57.9693 105.355L54.1016 100.6ZM55.4952 100.881L54.767 100.686L55.3063 101.244L57.1632 103.394L58.2909 101.585L55.4952 100.881Z" fill="#313131"/>
<path d="M58.4128 94.9607L57.8092 95.6712L57.4582 95.4394L58.7686 93.6328L62.5234 94.8685L63.5598 95.2839L62.821 94.4432L60.411 91.2725L61.7215 89.4659L62.0725 89.6977L61.6288 90.497L66.2876 92.9848L66.8024 92.4342L67.1535 92.6659L65.7 94.6638L65.349 94.432L65.7154 93.7497L62.4127 91.8547L60.974 91.0561L61.7641 92.0482L64.5304 95.7735L64.2213 96.2416L60.1438 95.0113L58.539 94.4895L59.7689 95.5536L62.6424 98.0222L63.1802 97.3858L63.5313 97.6176L62.2752 99.3928L61.9241 99.161L62.2791 98.5216L58.4128 94.9607Z" fill="#313131"/>
<path d="M63.6896 86.9175L64.2504 86.1955L70.0895 88.2192L70.4612 87.8597L70.8008 88.1343L69.4162 89.8751L69.0766 89.6005L69.4629 89.0154L68.2552 88.5541L66.7275 90.4861L67.4518 91.5524L67.9551 91.0445L68.2947 91.3192L67.0532 92.8687L66.7136 92.5941L66.9798 92.1146L63.6896 86.9175ZM65.0488 87.3276L64.3436 87.0469L64.817 87.6787L66.391 90.0286L67.7098 88.362L65.0488 87.3276Z" fill="#313131"/>
<path d="M67.0899 83.6509L66.5667 84.0616L66.2271 83.787L66.9623 82.9281C67.0938 82.7797 67.2254 82.6313 67.3142 82.4715C67.5115 82.2489 67.6661 82.0148 67.8634 81.7923C68.3897 81.1988 68.9015 80.8309 69.3329 80.7628C69.7643 80.6948 70.224 80.8639 70.6691 81.2586C71.0087 81.5332 71.2397 81.8706 71.362 82.2706C71.4844 82.6707 71.4782 83.0363 71.3749 83.4218C71.2716 83.8073 71.0712 84.2127 70.7537 84.5408C70.6336 84.6464 70.5449 84.8062 70.4248 84.9118C70.3047 85.0173 70.2389 85.0915 70.2274 85.1343L71.6485 86.3415L72.4579 85.5483L72.7546 85.8115L70.9554 87.9003L70.6586 87.6371L71.045 87.052L67.0899 83.6509ZM70.457 84.2777C70.7316 83.9381 70.8777 83.564 70.8411 83.1869C70.8044 82.8098 70.5849 82.4297 70.1084 81.9806C69.7374 81.6517 69.4063 81.517 69.072 81.5652C68.7377 81.6134 68.4547 81.813 68.0714 82.2153C67.9399 82.3637 67.8511 82.5235 67.7195 82.6719C67.6423 82.7889 67.588 82.8203 67.5765 82.8631L69.8565 84.8054C70.0079 84.7542 70.1938 84.5744 70.457 84.2777Z" fill="#313131"/>
<path d="M75.1289 82.775C74.6317 82.9172 74.1376 82.8766 73.6236 82.7389C73.1211 82.5583 72.6415 82.2921 72.165 81.8431C71.7314 81.4055 71.3949 80.9481 71.2213 80.3966C71.0362 79.8879 71.0454 79.3394 71.1403 78.814C71.2781 78.3 71.5014 77.8089 71.9275 77.4181C72.245 77.09 72.6053 76.7733 73.1599 76.4169L73.3886 76.2487L74.4242 77.3525L74.0409 77.7548L73.0932 77.1795C72.9961 77.1994 72.8447 77.2507 72.6817 77.3447C72.5188 77.4388 72.3329 77.6185 72.147 77.7983C71.8953 78.0522 71.7607 78.3834 71.7232 78.6947C71.6742 79.0488 71.7652 79.3946 71.9304 79.8061C72.107 80.1748 72.4122 80.5779 72.8145 80.9612C73.174 81.333 73.6107 81.5877 74.0161 81.7882C74.4215 81.9886 74.8184 82.049 75.1955 82.0124C75.5726 81.9757 75.8985 81.7875 76.2045 81.5023C76.4019 81.2797 76.5449 81.0885 76.6222 80.9715C76.6994 80.8544 76.7453 80.6831 76.7369 80.5431L76.3638 79.7086L76.7784 79.3606L77.5256 80.3413C77.4598 80.4154 77.3711 80.5753 77.2594 80.8208C77.1591 81.0235 77.0704 81.1834 76.9816 81.3432C76.8929 81.5031 76.7499 81.6943 76.5525 81.9169C76.0721 82.3391 75.5833 82.6213 75.1289 82.775Z" fill="#313131"/>
<path d="M80.1184 69.4668L80.4036 69.7728L79.8659 70.4092L82.6957 73.5547L82.523 72.3148L82.3504 68.504L82.2135 68.3296L81.5931 68.7602L81.3079 68.4542L83.055 66.9024L83.3403 67.2083L82.9226 67.7391L86.4171 71.6596L86.9832 71.2603L87.2685 71.5663L85.5213 73.1182L85.236 72.8122L85.7508 72.2615L82.8896 69.0617L83.0853 70.2159L83.2349 74.1123L83.446 74.3525L84.0779 73.8791L84.3631 74.1851L82.6045 75.7798L82.3192 75.4738L82.7797 74.9544L79.2852 71.034L78.7307 71.3904L78.4454 71.0844L80.1184 69.4668Z" fill="#313131"/>
<path d="M84.4819 65.8616C84.6249 65.6704 84.768 65.4792 84.8996 65.3308C85.0311 65.1825 85.1512 65.0769 85.2713 64.9714C85.806 64.5178 86.3262 64.2899 86.7576 64.2219C87.189 64.1538 87.5516 64.3428 87.8682 64.7031C88.142 65.0519 88.2758 65.4091 88.2154 65.8061C88.1549 66.2031 88.0202 66.5343 87.7456 66.8739C88.1487 66.5687 88.5603 66.4035 88.9573 66.464C89.3657 66.4816 89.6854 66.6591 89.9592 67.0079C90.3386 67.4769 90.4808 67.974 90.3974 68.4567C90.314 68.9393 89.9506 69.4388 89.3073 69.955C89.0671 70.1661 88.7955 70.3229 88.5783 70.4483C88.3611 70.5738 88.1553 70.6564 88.0038 70.7076C87.8524 70.7588 87.7552 70.7787 87.7438 70.8215L86.9254 69.5923L87.2742 69.3185L88.1446 70.0108C88.4361 69.9511 88.8048 69.7745 89.1651 69.4578C89.4596 69.2154 89.6256 68.9385 89.6088 68.6586C89.6034 68.3358 89.501 68.0329 89.1843 67.6726C88.9847 67.3895 88.7078 67.2235 88.3965 67.186C88.0852 67.1485 87.728 67.2823 87.3249 67.5875L86.8559 67.9669L86.5393 67.6066L86.8996 67.2899C87.074 67.153 87.2171 66.9618 87.3173 66.7591C87.4175 66.5564 87.4749 66.3423 87.4466 66.1051C87.4183 65.868 87.2929 65.6508 87.1247 65.4221C86.8822 65.1275 86.6482 64.973 86.3682 64.9898C86.0882 65.0066 85.8282 65.1206 85.5451 65.3202C85.3593 65.4999 85.2277 65.6483 85.0961 65.7967C84.9645 65.9451 84.9729 66.085 84.9928 66.1822L85.3576 66.8767L84.943 67.2247L84.0558 66.2525C84.1644 66.1898 84.296 66.0414 84.4819 65.8616Z" fill="#313131"/>
<path d="M90.4257 61.6696L89.7854 62.0031L89.5544 61.6657L90.4693 60.9927C90.6322 60.8986 90.8181 60.7189 91.0469 60.5506C91.2327 60.3709 91.4072 60.234 91.5158 60.1713C92.1476 59.6979 92.6678 59.47 93.0762 59.4876C93.4847 59.5052 93.8472 59.6942 94.121 60.043C94.352 60.3804 94.443 60.7261 94.4369 61.0917C94.4307 61.4574 94.2532 61.7771 93.9901 62.0738C94.4047 61.7258 94.8476 61.615 95.256 61.6326C95.6645 61.6502 96.0155 61.882 96.2465 62.2193C96.583 62.6768 96.6824 63.1625 96.5875 63.688C96.4926 64.2135 96.0321 64.7328 95.2802 65.3118C95.1058 65.4487 94.9428 65.5427 94.7799 65.6368C94.3997 65.8563 94.2138 66.036 94.1167 66.0559L93.2018 66.7289L92.9708 66.3916L93.4627 65.9266L90.4257 61.6696ZM92.861 62.6895L93.2527 62.4271C93.59 62.1962 93.756 61.9193 93.782 61.6508C93.8081 61.3823 93.7171 61.0366 93.4861 60.6993C93.2551 60.3619 93.0211 60.2074 92.7526 60.1814C92.4841 60.1553 92.1269 60.2891 91.7781 60.563C91.6037 60.6999 91.4408 60.7939 91.3092 60.9423L91.1891 61.0478L92.5665 62.9319C92.5237 62.9204 92.6866 62.8264 92.861 62.6895ZM95.0178 64.9201C95.4753 64.5836 95.7499 64.244 95.7989 63.8898C95.8479 63.5357 95.7569 63.19 95.5259 62.8526C95.2521 62.5038 94.9867 62.295 94.7182 62.2689C94.4069 62.2314 94.0925 62.3767 93.6894 62.6819C93.232 63.0184 92.9489 63.218 92.8288 63.3236L94.3003 65.3706C94.3975 65.3507 94.6262 65.1824 95.0178 64.9201Z" fill="#313131"/>
<path d="M96.0869 56.9889L96.8702 56.4643L101.799 60.1722L102.276 59.9328L102.507 60.2701L100.658 61.519L100.427 61.1817L100.961 60.7282L99.9425 59.9043L97.8756 61.2786L98.2312 62.5216L98.8714 62.1882L99.1024 62.5255L97.4272 63.6375L97.1962 63.3002L97.568 62.9407L96.0869 56.9889ZM97.2885 57.8159L96.6835 57.3324L96.9396 58.0897L97.7219 60.8243L99.5058 59.6495L97.2885 57.8159Z" fill="#313131"/>
<path d="M103.556 59.266C103.051 59.2682 102.591 59.0992 102.112 58.8329C101.686 58.5353 101.296 58.1093 100.939 57.5547C100.626 57.0116 100.452 56.4601 100.407 55.943C100.362 55.4259 100.511 54.8691 100.766 54.4323C101.032 53.9528 101.404 53.5933 101.904 53.2683C102.284 53.0488 102.75 52.8522 103.356 52.6473L103.616 52.5333L104.314 53.8682L103.825 54.1504L103.075 53.3525C102.989 53.3295 102.838 53.3808 102.644 53.4205C102.449 53.4603 102.232 53.5857 102.015 53.7112C101.689 53.8993 101.48 54.1647 101.357 54.4531C101.222 54.7842 101.173 55.1384 101.241 55.5698C101.309 56.0012 101.506 56.467 101.8 56.913C102.093 57.359 102.399 57.7621 102.738 58.0367C103.078 58.3114 103.44 58.5003 103.826 58.6036C104.211 58.7069 104.557 58.6159 104.937 58.3964C105.209 58.2396 105.383 58.1027 105.46 57.9857C105.581 57.8802 105.669 57.7203 105.704 57.5918L105.579 56.6862L106.056 56.4468L106.489 57.5728C106.381 57.6355 106.261 57.741 106.117 57.9322C105.986 58.0806 105.854 58.229 105.68 58.3659C105.548 58.5143 105.331 58.6397 105.114 58.7651C104.602 59.133 104.062 59.2637 103.556 59.266Z" fill="#313131"/>
<path d="M107.951 51.2615C107.992 50.7674 108.118 50.2962 108.361 49.9023C108.605 49.5084 108.911 49.2231 109.345 48.9722C109.834 48.69 110.32 48.5906 110.771 48.6197C111.222 48.6488 111.682 48.8179 112.053 49.1469C112.424 49.4758 112.772 49.8904 113.097 50.3907C113.442 50.9881 113.604 51.5824 113.637 52.1424C113.671 52.7023 113.588 53.1849 113.333 53.6217C113.078 54.0584 112.761 54.3865 112.326 54.6374C111.837 54.9196 111.352 55.019 110.858 54.9784C110.406 54.9493 109.947 54.7802 109.564 54.4941C109.182 54.208 108.791 53.7819 108.52 53.2503L107.337 53.8973L108.505 56.0467L109.177 55.7676L109.354 56.1363L107.313 57.2422L107.136 56.8735L107.702 56.4742L105.22 51.8609L104.56 52.0972L104.34 51.717L106.327 50.6425L106.546 51.0227L105.98 51.4219L107.055 53.4085L108.281 52.7729C108.041 52.2956 107.942 51.8099 107.951 51.2615ZM108.746 50.694C108.682 51.2738 108.864 51.9653 109.335 52.7799C109.742 53.486 110.153 54.0092 110.676 54.2869C111.198 54.5646 111.649 54.5937 112.181 54.323C112.658 54.0836 112.913 53.6469 112.922 53.0984C112.931 52.55 112.749 51.8585 112.322 51.0553C111.914 50.3493 111.504 49.8261 111.024 49.5598C110.544 49.2936 110.05 49.253 109.573 49.4924C109.096 49.7318 108.81 50.1142 108.746 50.694Z" fill="#313131"/>
<path d="M117.291 49.1274C117.611 49.3049 118.005 49.5482 118.527 49.8259C118.878 50.0577 119.112 50.2122 119.315 50.3124C119.518 50.4127 119.603 50.4356 119.7 50.4157L120.035 50.3676L120.211 50.7363L119.268 51.1722C119.16 51.2349 118.988 51.189 118.743 51.0773C118.497 50.9656 118.189 50.7453 117.764 50.4477C117.307 50.0958 116.913 49.8525 116.636 49.6865C116.359 49.5205 116.134 49.506 115.982 49.5572L115.505 49.7966L116.534 51.9544L117.237 51.7296L117.413 52.0983L115.31 53.0956L115.133 52.7269L115.73 52.3819L113.508 47.6547L112.859 47.8481L112.683 47.4794L114.732 46.5135L114.909 46.8822L114.3 47.27L115.317 49.4707L115.957 49.1373L116.469 46.1986L115.766 46.4234L115.59 46.0547L117.476 45.1829L117.653 45.5515L117.098 45.9079L116.477 48.9094C116.66 48.9124 116.96 48.9928 117.291 49.1274Z" fill="#313131"/>
<path d="M121.441 49.918C120.958 49.8346 120.564 49.5913 120.205 49.2195C119.845 48.8478 119.509 48.3903 119.261 47.773C119.013 47.1557 118.882 46.6157 118.934 46.0787C118.986 45.5418 119.113 45.0706 119.41 44.6453C119.708 44.2201 120.111 43.9149 120.577 43.7184C121.4 43.388 122.088 43.3888 122.739 43.701C123.39 44.0131 123.906 44.6564 124.268 45.5338C124.516 46.1511 124.635 46.734 124.583 47.2709C124.531 47.8079 124.393 48.3219 124.096 48.7471C123.798 49.1724 123.395 49.4776 122.929 49.6741C122.398 49.9448 121.923 50.0014 121.441 49.918ZM119.818 45.3514C119.712 45.9197 119.851 46.5997 120.17 47.4656C120.511 48.2458 120.911 48.8119 121.379 49.121C121.835 49.4729 122.33 49.5134 122.85 49.2855C123.358 49.1005 123.656 48.6752 123.762 48.1069C123.869 47.5386 123.741 46.8157 123.368 45.9812C123.026 45.201 122.627 44.6349 122.159 44.3259C121.691 44.0168 121.208 43.9334 120.688 44.1613C120.21 44.4006 119.924 44.7831 119.818 45.3514Z" fill="#313131"/>
<path d="M124.757 42.6806L124.077 42.8197L123.955 42.4197L125.026 42.0182C125.221 41.9784 125.438 41.853 125.698 41.739C125.958 41.6251 126.121 41.531 126.261 41.5226C126.976 41.255 127.547 41.1785 127.932 41.2818C128.318 41.3851 128.615 41.6483 128.768 42.1026C128.902 42.4599 128.939 42.837 128.804 43.1681C128.67 43.4993 128.449 43.8076 128.123 43.9957C128.632 43.8106 129.052 43.7854 129.438 43.8887C129.823 43.992 130.108 44.298 130.262 44.7524C130.447 45.2611 130.438 45.8095 130.183 46.2462C129.917 46.7258 129.351 47.125 128.485 47.4439C128.279 47.5265 128.128 47.5777 127.933 47.6175C127.533 47.7398 127.273 47.8538 127.176 47.8737L126.104 48.2752L125.971 47.9179L126.611 47.5845L124.757 42.6806ZM126.838 44.3398L127.292 44.1861C127.649 44.0523 127.889 43.8412 128.013 43.5528C128.136 43.2645 128.13 42.9417 127.954 42.573C127.82 42.2158 127.609 41.9756 127.363 41.8639C127.118 41.7522 126.741 41.7889 126.286 41.9426C126.081 42.0251 125.918 42.1192 125.712 42.2018L125.549 42.2959L126.383 44.4935C126.438 44.4622 126.589 44.4109 126.838 44.3398ZM128.265 47.0637C128.774 46.8787 129.123 46.6049 129.3 46.2852C129.478 45.9654 129.473 45.6427 129.319 45.1883C129.154 44.7768 128.943 44.5366 128.697 44.4249C128.409 44.3017 128.032 44.3384 127.566 44.5349C127.014 44.7085 126.7 44.8538 126.548 44.905L127.434 47.2541C127.551 47.3314 127.854 47.2289 128.265 47.0637Z" fill="#313131"/>
<path d="M137.163 38.0167L137.286 38.4167L136.645 38.7501L138.153 43.7451L138.93 43.586L139.053 43.9861L136.804 44.669L136.682 44.2689L137.31 43.9783L135.771 38.9291L133.176 39.7029L134.716 44.7522L135.493 44.5931L135.615 44.9932L133.366 45.676L133.244 45.276L133.873 44.9854L132.365 39.9904L131.642 40.1181L131.52 39.7181L137.163 38.0167Z" fill="#313131"/>
<path d="M140.679 43.2283C140.219 43.0592 139.837 42.7731 139.531 42.37C139.226 41.9668 138.998 41.4467 138.848 40.8095C138.697 40.1723 138.663 39.6124 138.77 39.0441C138.865 38.5186 139.119 38.0819 139.448 37.711C139.777 37.34 140.212 37.0892 140.752 36.9584C141.595 36.7252 142.303 36.8232 142.92 37.2638C143.493 37.6929 143.912 38.3562 144.154 39.3391C144.305 39.9762 144.327 40.579 144.232 41.1045C144.125 41.6728 143.871 42.1095 143.499 42.469C143.127 42.8285 142.693 43.0793 142.195 43.2215C141.601 43.3836 141.138 43.3974 140.679 43.2283ZM139.716 38.4254C139.524 38.9708 139.566 39.6706 139.788 40.5564C139.978 41.3879 140.323 41.9853 140.725 42.3685C141.128 42.7518 141.642 42.8895 142.139 42.7473C142.679 42.6165 142.996 42.2884 143.2 41.7002C143.392 41.1549 143.361 40.4122 143.14 39.5264C142.949 38.6949 142.604 38.0975 142.202 37.7143C141.8 37.331 141.329 37.2048 140.789 37.3355C140.268 37.5634 139.897 37.9229 139.716 38.4254Z" fill="#313131"/>
<path d="M146.956 39.6766C147.018 40.4737 146.954 41.0535 146.785 41.5132C146.728 41.7273 146.585 41.9185 146.464 42.0241C146.344 42.1296 146.181 42.2237 145.987 42.2634C145.739 42.3346 145.513 42.32 145.416 42.3399L145.222 41.6912C145.362 41.6828 145.557 41.6431 145.848 41.5834C145.945 41.5636 146.042 41.5437 146.108 41.4695C146.174 41.3953 146.24 41.3211 146.274 41.1926C146.566 40.4446 146.471 39.0876 146.053 37.0476L145.903 36.4104L144.911 36.5121L144.832 36.1235L149.592 35.1494L149.671 35.538L148.914 35.7942L149.968 40.9428L150.819 40.8496L150.899 41.2381L148.373 41.755L148.293 41.3664L149.148 41.0904L148.094 35.9417L146.443 36.2797L146.613 37.014C146.758 38.0168 146.882 38.9224 146.956 39.6766Z" fill="#313131"/>
<path d="M151.289 35.3285L150.6 35.3277L150.532 34.8963L154.761 34.1929L155.105 35.4787L154.63 35.5353L154.246 34.7436L152.197 35.0211L152.577 37.3724L153.98 37.1056L153.981 36.4172L154.455 36.3606L154.767 38.2805L154.293 38.3371L154.068 37.6341L152.677 37.8581L153.065 40.3495L155.396 39.8724L155.652 38.7472L156.178 38.8421L156.196 40.3161L151.59 41.0561L151.511 40.6675L152.202 40.4855L151.289 35.3285Z" fill="#313131"/>
<path d="M158.234 34.2513L156.8 34.4638L156.738 36.2376L156.166 36.3141L156.032 34.0744L161.249 33.4523L161.62 35.6636L161.103 35.7087L160.605 33.9685L159.151 34.0839L159.805 39.3549L161.01 39.3106L161.035 39.7305L157.856 40.1181L157.831 39.6981L158.899 39.4795L158.234 34.2513Z" fill="#313131"/>
<path d="M165.121 36.6476L164.701 36.6728C164.581 36.7784 164.438 36.9696 164.326 37.2151C164.203 37.5035 164.068 37.8347 163.954 38.263C163.796 38.6799 163.716 38.9797 163.615 39.1824C163.515 39.3851 163.438 39.5021 163.341 39.522L162.21 39.632L162.184 39.2121L162.487 39.1096C162.584 39.0897 162.65 39.0156 162.739 38.8557C162.828 38.6958 162.939 38.4503 163.074 38.1191C163.22 37.7451 163.398 37.4254 163.509 37.1799C163.664 36.9458 163.807 36.7546 163.97 36.6605C163.573 36.6001 163.253 36.4226 163.011 36.1281C162.768 35.8336 162.634 35.4764 162.609 35.0564C162.556 34.3994 162.736 33.8968 163.085 33.623C163.488 33.3179 164.04 33.1443 164.782 33.1138C164.922 33.1054 165.16 33.0771 165.428 33.1031C165.708 33.0863 165.891 33.0894 166.031 33.081L167.248 32.9939L167.273 33.4138L166.593 33.553L167.001 38.7123L167.775 38.736L167.8 39.156L165.312 39.3615L165.287 38.9416L166.107 38.794L165.93 36.5429L165.121 36.6476ZM165.465 33.4802C165.196 33.4542 165.002 33.4939 164.776 33.4794C164.356 33.5046 163.999 33.6384 163.813 33.8181C163.573 34.0292 163.481 34.3719 163.538 34.8462C163.552 35.3089 163.74 35.6348 163.951 35.875C164.216 36.0838 164.559 36.1756 164.979 36.1504C165.442 36.1367 165.733 36.0771 165.873 36.0687L165.69 33.4948L165.465 33.4802Z" fill="#313131"/>
<path d="M170.298 33.2602L168.844 33.3756L168.599 35.1463L168.039 35.1799L168.099 32.9005L173.341 32.6983L173.518 34.9494L173.012 34.9517L172.655 33.2031L171.181 33.2213L171.36 38.5488L172.542 38.5903L172.568 39.0102L169.371 39.1178L169.346 38.6978L170.434 38.5763L170.298 33.2602Z" fill="#313131"/>
<path d="M177.435 38.6618C177.01 38.3642 176.694 38.0039 176.454 37.5266C176.215 37.0493 176.138 36.4779 176.128 35.8323C176.16 35.1982 176.309 34.6414 176.575 34.1618C176.842 33.6822 177.213 33.3228 177.691 33.0834C178.168 32.844 178.665 32.7018 179.256 32.7225C179.665 32.7401 180.202 32.7922 180.802 32.9529L181.059 33.0217L180.925 34.5469L180.377 34.5377L180.201 33.4806C180.127 33.4148 180.01 33.3375 179.796 33.2802C179.582 33.2228 179.356 33.2082 179.087 33.1822C178.722 33.176 178.419 33.2785 178.136 33.4781C177.853 33.6777 177.632 33.986 177.444 34.3485C177.286 34.7654 177.171 35.1937 177.15 35.785C177.141 36.3334 177.198 36.8076 177.32 37.2077C177.442 37.6078 177.662 37.9879 177.959 38.2511C178.255 38.5142 178.587 38.6489 178.995 38.6665C179.318 38.6612 179.501 38.6643 179.695 38.6245C179.846 38.5733 179.998 38.522 180.118 38.4165L180.476 37.5942L181.002 37.6891L180.777 38.8686C180.637 38.877 180.486 38.9282 180.249 38.9565C180.054 38.9963 179.849 39.0789 179.666 39.0758C179.472 39.1155 179.246 39.101 178.966 39.1178C178.375 39.0971 177.861 38.9594 177.435 38.6618Z" fill="#313131"/>
<path d="M184.469 32.9716L184.451 33.38L183.611 33.4304L183.304 37.6633L184.073 36.6759L186.702 33.8911L186.716 33.6655L185.977 33.5132L185.994 33.1048L188.293 33.2618L188.276 33.6702L187.619 33.7237L187.273 38.9564L187.969 39.0972L187.952 39.5056L185.61 39.3372L185.627 38.9287L186.37 38.8982L186.647 34.6109L185.943 35.5242L183.26 38.3403L183.222 38.6516L184.016 38.7725L183.999 39.181L181.614 39.001L181.631 38.5926L182.331 38.5505L182.678 33.3179L182.024 33.1886L182.041 32.7801L184.469 32.9716Z" fill="#313131"/>
<path d="M193.609 33.8138L193.433 36.0159L192.853 35.9524L192.806 34.2413L190.95 33.9734L190.355 39.2772L191.803 39.5274L191.743 39.9244L188.447 39.5463L188.507 39.1493L189.421 39.1647L189.981 33.9894L189.125 33.7599L189.185 33.3629L193.609 33.8138Z" fill="#313131"/>
<path d="M195.028 34.5155L194.397 34.3005L194.457 33.9035L196.711 34.2319L196.65 34.6289L195.919 34.6165L195.591 36.8699L198.498 37.3276L198.826 35.0742L198.152 34.8477L198.213 34.4508L200.466 34.7791L200.406 35.1761L199.717 35.1753L198.931 40.336L199.574 40.5081L199.514 40.9051L197.26 40.5768L197.321 40.1798L198.009 40.1806L198.383 37.7559L195.476 37.2983L195.102 39.723L195.83 39.9181L195.769 40.315L193.473 39.9752L193.534 39.5783L194.222 39.5791L195.028 34.5155Z" fill="#313131"/>
<path d="M203.511 35.4111L204.422 35.6093L205.265 41.7117L205.768 41.8923L205.708 42.2892L203.531 41.8439L203.592 41.4469L204.312 41.502L204.162 40.1764L201.772 39.6737L201.139 40.8355L201.813 41.062L201.752 41.459L199.79 41.071L199.851 40.674L200.399 40.6833L203.511 35.4111ZM203.777 36.8139L203.704 36.0597L203.38 36.7534L202.026 39.237L204.117 39.6594L203.777 36.8139Z" fill="#313131"/>
<path d="M208.329 40.5583C208.048 41.2635 207.716 41.8173 207.399 42.1454C207.213 42.3251 207.05 42.4192 206.898 42.4704C206.747 42.5217 206.564 42.5186 206.35 42.4612C206.093 42.3923 205.879 42.335 205.762 42.2577L205.848 41.5922C205.977 41.6267 206.191 41.6841 206.448 41.7529C206.534 41.7759 206.631 41.756 206.728 41.7361C206.825 41.7162 206.891 41.642 207.011 41.5365C207.568 40.9973 208.138 39.7268 208.635 37.7022L208.807 37.0597L207.908 36.8187L208.022 36.3903L212.757 37.5672L212.642 37.9955L211.837 37.9174L210.568 42.9947L211.359 43.2984L211.256 43.6839L208.717 43.0496L208.821 42.6641L209.7 42.808L210.969 37.7307L209.287 37.3259L209.092 38.0541C208.893 38.9651 208.61 39.8531 208.329 40.5583Z" fill="#313131"/>
<path d="M215.573 40.9383C216.204 41.1532 216.672 41.4623 216.934 41.854C217.197 42.2456 217.242 42.7627 217.05 43.3081C216.835 43.9391 216.494 44.3529 216.028 44.5494C215.508 44.7773 214.96 44.7681 214.317 44.5959C214.232 44.573 214.146 44.55 214.06 44.527C213.975 44.5041 213.889 44.4811 213.772 44.4039C213.484 44.2807 213.184 44.2004 212.938 44.0887L211.836 43.7474L211.939 43.3619L212.636 43.5027L214.162 38.4943L213.554 38.1936L213.657 37.8081L215.947 38.5136L215.844 38.8991L215.007 38.7667L214.416 40.6284L215.573 40.9383ZM213.844 43.9641C213.93 43.987 214.089 44.0758 214.261 44.1217C214.732 44.2479 215.098 44.2541 215.423 44.0659C215.749 43.8778 215.97 43.5696 216.096 43.0984C216.222 42.6272 216.217 42.3044 216.029 41.9786C215.872 41.707 215.564 41.4867 215.104 41.3176L214.29 41.0995L213.47 43.8179C213.641 43.8638 213.758 43.9411 213.844 43.9641ZM221.341 40.1425L221.238 40.528L220.444 40.4071L218.918 45.4155L219.655 45.7506L219.551 46.1361L217.176 45.4077L217.279 45.0222L218.061 45.186L219.587 40.1775L218.851 39.8424L218.954 39.4569L221.341 40.1425Z" fill="#313131"/>
<path d="M224.807 41.9435L224.21 41.6L224.356 41.226L226.483 42.0255L226.337 42.3995L225.64 42.2587L224.841 44.3858L227.63 45.4546L228.43 43.3275L227.833 42.984L227.979 42.61L230.106 43.4095L229.96 43.7835L229.306 43.6542L227.438 48.5708L228.046 48.8715L227.9 49.2455L225.773 48.446L225.919 48.072L226.604 48.2556L227.493 45.9686L224.703 44.8998L223.815 47.1868L224.454 47.5418L224.308 47.9158L222.15 47.062L222.296 46.688L222.981 46.8716L224.807 41.9435Z" fill="#313131"/>
<path d="M232.916 44.5756L233.781 44.9451L233.322 51.1117L233.747 51.4093L233.601 51.7833L231.551 50.8668L231.697 50.4927L232.371 50.7192L232.544 49.3883L230.28 48.4144L229.425 49.3789L230.064 49.7338L229.918 50.1078L228.071 49.2915L228.217 48.9175L228.731 49.0552L232.916 44.5756ZM232.891 46.0381L233 45.2869L232.517 45.8919L230.663 48.0121L232.639 48.8628L232.891 46.0381Z" fill="#313131"/>
<path d="M239.096 48.0679L238.319 47.5385L238.508 47.176L240.481 48.2095L239.802 52.1135L239.558 53.1959L240.282 52.3798L243.062 49.5438L245.034 50.5773L244.845 50.9399L243.969 50.6132L242.143 55.5413L242.76 55.9819L242.571 56.3445L240.438 55.2222L240.627 54.8596L241.332 55.1404L242.736 51.6143L243.332 50.0754L242.446 50.9855L239.185 54.2437L238.706 53.9775L239.379 49.7507L239.675 48.1315L238.803 49.5044L236.748 52.7183L237.45 53.1819L237.261 53.5445L235.331 52.5224L235.52 52.1598L236.183 52.4291L239.096 48.0679Z" fill="#313131"/>
<path d="M247.826 52.1517L248.614 52.6383L247.447 58.7069L247.872 59.0045L247.683 59.367L245.777 58.2593L245.965 57.8967L246.628 58.166L246.918 56.9124L244.82 55.6616L243.848 56.5488L244.421 56.978L244.232 57.3405L242.528 56.333L242.717 55.9704L243.22 56.151L247.826 52.1517ZM247.63 53.5683L247.825 52.8401L247.268 53.3793L245.149 55.2907L247.013 56.3869L247.63 53.5683Z" fill="#313131"/>
<path d="M251.553 55.0325L251.076 54.5835L251.308 54.2324L252.244 54.8505C252.404 54.9393 252.596 55.0823 252.755 55.1711C253.032 55.3371 253.278 55.4488 253.512 55.6033C254.171 56.0554 254.605 56.493 254.716 56.9359C254.827 57.3788 254.743 57.8614 254.434 58.3295C254.191 58.7234 253.896 58.9658 253.528 59.1425C253.159 59.3192 252.782 59.3558 252.385 59.2954C251.988 59.2349 251.571 59.0773 251.177 58.834C251.017 58.7453 250.9 58.668 250.752 58.5365C250.592 58.4477 250.518 58.3819 250.486 58.3276L249.47 59.8918L250.384 60.5955L250.152 60.9466L247.843 59.4556L248.075 59.1046L248.725 59.4167L251.553 55.0325ZM251.409 58.483C251.803 58.7263 252.145 58.8181 252.534 58.7385C252.923 58.659 253.271 58.3852 253.603 57.8315C253.847 57.4376 253.95 57.0521 253.847 56.7492C253.745 56.4462 253.503 56.1517 253.077 55.8542C252.917 55.7654 252.758 55.6767 252.555 55.5765C252.438 55.4992 252.352 55.4762 252.352 55.4762L250.718 57.9765C250.867 58.1081 251.058 58.2512 251.409 58.483Z" fill="#313131"/>
<path d="M253.541 62.8645C253.344 62.3986 253.299 61.8816 253.382 61.3989C253.466 60.9163 253.712 60.3396 254.087 59.7973C254.45 59.2978 254.876 58.907 255.354 58.6676C255.831 58.4283 256.36 58.3403 256.897 58.3924C257.433 58.4445 257.936 58.625 258.393 58.9769C258.744 59.2087 259.146 59.592 259.537 60.018L259.759 60.2154L258.804 61.3826L258.336 61.0735L258.783 60.0914C258.763 59.9943 258.657 59.8742 258.563 59.7112C258.469 59.5483 258.235 59.3938 258.001 59.2392C257.693 59.0189 257.393 58.9386 257.027 58.9324C256.662 58.9263 256.304 59.0601 255.967 59.2911C255.63 59.5221 255.258 59.8815 254.96 60.3068C254.663 60.732 254.451 61.1803 254.293 61.5971C254.179 62.0255 254.118 62.4224 254.24 62.8225C254.363 63.2225 254.562 63.5056 254.913 63.7374C255.147 63.8919 255.339 64.0349 255.51 64.0808C255.681 64.1268 255.81 64.1612 255.95 64.1528L256.722 63.671L257.124 64.0542L256.249 64.9215C256.132 64.8443 255.961 64.7984 255.758 64.6982C255.544 64.6408 255.384 64.552 255.17 64.4946C255.01 64.4059 254.807 64.3057 254.573 64.1511C254.128 63.7564 253.737 63.3303 253.541 62.8645Z" fill="#313131"/>
<path d="M265.827 64.6417L265.552 64.9812L264.85 64.5177L262.181 67.7966L263.381 67.4295L267.115 66.6856L267.258 66.4944L266.762 65.9482L267.037 65.6086L268.84 67.1018L268.566 67.4414L267.969 67.0979L264.631 71.1616L265.138 71.6649L264.875 71.9617L263.072 70.4684L263.335 70.1717L263.963 70.5695L266.686 67.2592L265.583 67.6064L261.752 68.3702L261.554 68.5928L262.094 69.1504L261.83 69.4472L259.984 67.9425L260.247 67.6457L260.832 68.032L264.171 63.9684L263.706 63.4765L263.98 63.1369L265.827 64.6417Z" fill="#313131"/>
<path d="M270.099 68.403C270.344 68.5147 270.493 68.6463 270.653 68.735C270.812 68.8238 270.961 68.9553 271.078 69.0326C271.597 69.4931 271.934 69.9506 272.045 70.3934C272.155 70.8363 272.052 71.2218 271.735 71.5499C271.417 71.8781 271.091 72.0662 270.683 72.0486C270.306 72.0853 269.92 71.982 269.569 71.7502C269.929 72.1219 270.148 72.5021 270.185 72.8792C270.222 73.2563 270.075 73.6303 269.812 73.9271C269.418 74.3722 268.94 74.6116 268.446 74.571C267.941 74.5733 267.418 74.2956 266.782 73.7578C266.516 73.5489 266.348 73.3202 266.18 73.0915C266.012 72.8628 265.918 72.6999 265.812 72.5798C265.749 72.4711 265.687 72.3625 265.655 72.3082L266.748 71.3155L267.044 71.5786L266.512 72.5377C266.614 72.8407 266.857 73.1352 267.185 73.4526C267.482 73.7158 267.727 73.8275 268.061 73.7793C268.353 73.7197 268.667 73.5744 268.942 73.2348C269.194 72.9809 269.274 72.681 269.311 72.3697C269.349 72.0584 269.118 71.7211 268.747 71.3921L268.302 70.9974L268.619 70.6693L268.99 70.9982C269.182 71.1413 269.373 71.2843 269.587 71.3417C269.801 71.3991 270.027 71.4136 270.275 71.3425C270.524 71.2714 270.698 71.1345 270.896 70.9119C271.159 70.6152 271.271 70.3697 271.211 70.0782C271.194 69.7983 271.026 69.5696 270.729 69.3064C270.549 69.1205 270.389 69.0318 270.187 68.9316C270.027 68.8428 269.887 68.8512 269.79 68.8711L269.158 69.3445L268.744 69.0041L269.568 67.9853C269.705 68.1597 269.865 68.2485 270.099 68.403Z" fill="#313131"/>
<path d="M275.12 73.6507L274.721 73.0847L275.027 72.7994L275.82 73.6087C275.968 73.7403 276.148 73.9262 276.37 74.1235C276.593 74.3209 276.741 74.4525 276.815 74.5183C277.355 75.0759 277.691 75.5334 277.716 75.9533C277.796 76.3419 277.65 76.7159 277.332 77.044C277.026 77.3293 276.712 77.4746 276.378 77.5228C276.043 77.5709 275.658 77.4676 275.307 77.2358C275.709 77.6191 275.929 77.9992 275.954 78.4192C275.979 78.8391 275.844 79.1703 275.527 79.4984C275.144 79.9007 274.635 80.0858 274.141 80.0452C273.604 79.9931 273.007 79.6497 272.351 79.0147C272.203 78.8832 272.066 78.7087 271.96 78.5886C271.675 78.2827 271.495 78.0968 271.421 78.031L270.628 77.2217L270.934 76.9364L271.508 77.3655L275.12 73.6507ZM272.626 78.6751C273.028 79.0584 273.379 79.2902 273.745 79.2963C274.11 79.3025 274.425 79.1572 274.731 78.8719C275.037 78.5866 275.171 78.2554 275.155 77.9755C275.138 77.6955 274.95 77.3696 274.59 76.9979C274.188 76.6146 273.934 76.363 273.828 76.2429L272.067 78.0203C272.087 78.1175 272.309 78.3148 272.626 78.6751ZM274.528 76.2008L274.856 76.5183C275.153 76.7815 275.43 76.9475 275.71 76.9307C275.99 76.9139 276.304 76.7686 276.567 76.4718C276.831 76.175 276.985 75.941 276.968 75.661C276.952 75.3811 276.763 75.0552 276.435 74.7378C276.287 74.6062 276.139 74.4746 275.947 74.3315L275.799 74.2L274.157 75.8719C274.243 75.8949 274.349 76.015 274.528 76.2008Z" fill="#313131"/>
<path d="M280.664 78.4876L281.309 79.1653L278.431 84.592L278.725 85.038L278.419 85.3233L276.93 83.6847L277.236 83.3995L277.755 83.86L278.431 82.7096L276.762 80.8852L275.559 81.435L276.001 82.0126L275.695 82.2979L274.343 80.8337L274.649 80.5485L275.062 80.8889L280.664 78.4876ZM279.997 79.7779L280.406 79.1071L279.712 79.4719L277.142 80.6657L278.6 82.2499L279.997 79.7779Z" fill="#313131"/>
<path d="M279.512 86.2131C279.424 85.6846 279.508 85.2019 279.731 84.7109C279.954 84.2198 280.306 83.7632 280.83 83.3525C281.31 82.9303 281.83 82.7024 282.37 82.5717C282.91 82.4409 283.447 82.493 283.95 82.6735C284.452 82.8541 284.877 83.1517 285.257 83.6206C285.531 83.9694 285.824 84.4154 286.095 84.947L286.209 85.2071L285 86.1226L284.652 85.708L285.344 84.8376C285.324 84.7404 285.316 84.6004 285.221 84.4375C285.127 84.2746 285.002 84.0573 284.822 83.8714C284.58 83.5769 284.303 83.4109 283.96 83.3191C283.618 83.2273 283.24 83.264 282.84 83.3863C282.44 83.5087 282.006 83.7595 281.591 84.1075C281.177 84.4555 280.848 84.8265 280.616 85.1775C280.373 85.5714 280.269 85.9569 280.263 86.3226C280.257 86.6882 280.391 87.0454 280.665 87.3942C280.876 87.6344 281.024 87.766 281.184 87.8547C281.344 87.9435 281.461 88.0208 281.601 88.0123L282.455 87.7363L282.749 88.1823L281.706 88.8209C281.631 88.7551 281.483 88.6235 281.292 88.4804C281.089 88.3802 280.941 88.2486 280.792 88.1171C280.644 87.9855 280.453 87.8424 280.285 87.6137C279.839 87.219 279.6 86.7417 279.512 86.2131Z" fill="#313131"/>
<path d="M288.086 89.3368C288.604 89.2917 289.043 89.3637 289.46 89.5213C289.877 89.6789 290.248 90.0078 290.522 90.3566C290.858 90.8141 291.024 91.2256 291.08 91.6999C291.094 92.1626 291.022 92.6024 290.767 93.0392C290.512 93.4759 290.172 93.8897 289.66 94.2576C289.137 94.6683 288.563 94.9275 288.022 95.0583C287.482 95.189 286.988 95.1484 286.486 94.9679C285.983 94.7873 285.644 94.5127 285.339 94.1096C285.002 93.6521 284.805 93.1863 284.749 92.712C284.692 92.2378 284.807 91.8095 285.019 91.3612C285.274 90.9245 285.614 90.5107 286.083 90.1314L285.273 89.0421L283.312 90.5365L283.688 91.1883L283.351 91.4192L281.962 89.578L282.299 89.347L282.807 89.8504L286.958 86.6932L286.614 86.0958L286.962 85.822L288.32 87.6089L287.971 87.8827L287.463 87.3794L285.676 88.7369L286.486 89.8262C287.104 89.5784 287.601 89.4362 288.086 89.3368ZM288.817 90.0375C288.257 90.0711 287.585 90.3503 286.833 90.9292C286.19 91.4455 285.741 91.922 285.549 92.4673C285.357 93.0127 285.414 93.4869 285.75 93.9444C286.098 94.359 286.503 94.5594 287.075 94.483C287.635 94.4494 288.275 94.1159 289.015 93.5798C289.659 93.0636 290.108 92.5871 290.3 92.0417C290.492 91.4963 290.435 91.0221 290.13 90.619C289.825 90.2158 289.377 90.0039 288.817 90.0375Z" fill="#313131"/>
<path d="M291.67 98.2391C291.578 98.5817 291.366 99.03 291.131 99.5639C290.942 99.9264 290.862 100.226 290.773 100.386C290.727 100.557 290.681 100.729 290.712 100.783L290.815 101.086L290.478 101.317L289.879 100.468C289.816 100.359 289.819 100.176 289.931 99.9309C290.042 99.6854 290.189 99.3114 290.401 98.8631C290.678 98.3407 290.836 97.9239 290.959 97.6355C291.082 97.3472 291.054 97.11 291.003 96.9586L290.709 96.5126L288.739 97.8671L289.061 98.5502L288.724 98.7811L287.444 96.8772L287.781 96.6462L288.234 97.1809L292.554 94.2525L292.264 93.6237L292.601 93.3928L293.85 95.2424L293.512 95.4734L293.059 94.9387L291.046 96.2816L291.434 96.8905L294.402 96.9512L294.068 96.311L294.406 96.08L295.549 97.8095L295.212 98.0405L294.747 97.5486L291.705 97.4222C291.787 97.6279 291.761 97.8964 291.67 98.2391Z" fill="#313131"/>
<path d="M291.501 102.464C291.53 102.012 291.657 101.541 291.997 101.127C292.295 100.702 292.721 100.311 293.264 99.9978C293.818 99.6414 294.37 99.4678 294.887 99.4227C295.447 99.3891 295.929 99.4725 296.378 99.6844C296.826 99.8963 297.197 100.225 297.479 100.714C297.918 101.474 298.057 102.154 297.819 102.871C297.593 103.545 297.066 104.138 296.24 104.652C295.686 105.008 295.134 105.182 294.563 105.258C294.003 105.292 293.52 105.208 293.029 104.985C292.581 104.773 292.222 104.401 291.928 103.955C291.614 103.412 291.515 102.926 291.501 102.464ZM295.8 100.126C295.252 100.117 294.549 100.342 293.777 100.824C293.059 101.274 292.567 101.739 292.333 102.273C292.055 102.796 292.111 103.27 292.394 103.759C292.687 104.205 293.124 104.459 293.673 104.469C294.264 104.489 294.924 104.253 295.696 103.771C296.413 103.321 296.905 102.856 297.14 102.322C297.363 101.831 297.361 101.325 297.079 100.836C296.785 100.39 296.391 100.147 295.8 100.126Z" fill="#313131"/>
<path d="M299.177 104.658L298.941 103.998L299.321 103.778L299.885 104.756C299.98 104.919 300.105 105.136 300.273 105.365C300.441 105.593 300.536 105.756 300.598 105.865C300.963 106.56 301.148 107.068 301.076 107.508C301.004 107.948 300.795 108.213 300.404 108.476C300.078 108.664 299.689 108.743 299.335 108.694C298.981 108.645 298.661 108.468 298.387 108.119C298.67 108.608 298.749 108.996 298.677 109.436C298.617 109.833 298.354 110.13 297.973 110.349C297.485 110.632 296.968 110.677 296.465 110.496C295.963 110.316 295.498 109.824 295.027 109.009C294.933 108.846 294.851 108.64 294.756 108.477C294.537 108.097 294.423 107.837 294.392 107.783L293.827 106.805L294.196 106.629L294.595 107.195L299.177 104.658ZM295.365 108.778C295.647 109.267 295.932 109.573 296.275 109.665C296.617 109.757 296.952 109.708 297.332 109.489C297.712 109.269 297.921 109.004 297.99 108.747C298.059 108.49 297.979 108.101 297.728 107.667C297.446 107.178 297.258 106.852 297.195 106.744L294.991 107.944C295.031 108.138 295.145 108.398 295.365 108.778ZM297.88 106.927L298.088 107.35C298.277 107.676 298.542 107.885 298.799 107.954C299.099 108.034 299.39 107.975 299.77 107.755C300.096 107.567 300.294 107.344 300.363 107.087C300.431 106.83 300.34 106.485 300.09 106.05C299.996 105.887 299.859 105.713 299.776 105.507L299.682 105.344L297.63 106.493C297.692 106.601 297.755 106.71 297.88 106.927Z" fill="#313131"/>
<path d="M305.738 116.149L305.37 116.326L304.982 115.717L300.286 117.994L300.542 118.751L300.174 118.928L299.145 116.77L299.514 116.593L299.901 117.202L304.64 114.937L303.455 112.507L298.704 114.815L298.961 115.573L298.592 115.749L297.552 113.634L297.921 113.458L298.277 114.012L302.973 111.735L302.748 111.032L303.117 110.856L305.738 116.149Z" fill="#313131"/>
<path d="M301.095 120.46C301.178 119.977 301.421 119.583 301.75 119.212C302.122 118.853 302.58 118.516 303.154 118.257C303.729 117.998 304.311 117.878 304.848 117.93C305.385 117.982 305.856 118.109 306.282 118.406C306.707 118.704 307.012 119.107 307.209 119.573C307.539 120.396 307.581 121.096 307.226 121.735C306.914 122.386 306.271 122.902 305.393 123.264C304.776 123.512 304.193 123.631 303.656 123.579C303.119 123.527 302.605 123.389 302.18 123.092C301.755 122.794 301.45 122.391 301.21 121.914C301.068 121.416 300.98 120.888 301.095 120.46ZM305.673 118.794C305.104 118.688 304.425 118.827 303.547 119.189C302.767 119.53 302.201 119.93 301.892 120.398C301.583 120.866 301.499 121.348 301.727 121.869C301.955 122.389 302.338 122.675 302.906 122.781C303.474 122.888 304.197 122.76 305.032 122.387C305.812 122.045 306.378 121.646 306.687 121.178C306.996 120.709 307.037 120.215 306.851 119.707C306.624 119.186 306.241 118.9 305.673 118.794Z" fill="#313131"/>
<path d="M305.561 126.064C304.784 126.223 304.17 126.288 303.73 126.216C303.516 126.158 303.302 126.101 303.196 125.981C303.048 125.849 302.942 125.729 302.86 125.523C302.746 125.263 302.706 125.069 302.698 124.929L303.326 124.638C303.335 124.778 303.417 124.984 303.531 125.244C303.551 125.341 303.625 125.407 303.7 125.473C303.774 125.539 303.859 125.562 303.988 125.596C304.77 125.76 306.13 125.482 308.025 124.75L308.642 124.502L308.389 123.562L308.801 123.397L310.521 127.943L310.109 128.109L309.744 127.414L304.84 129.268L305.042 130.056L304.642 130.179L303.737 127.733L304.137 127.61L304.522 128.402L309.425 126.548L308.839 124.968L308.125 125.236C307.181 125.671 306.338 125.905 305.561 126.064Z" fill="#313131"/>
<path d="M310.556 129.697L310.417 129.017L310.817 128.895L312.157 132.973L310.965 133.48L310.812 133.025L311.498 132.521L310.886 130.52L308.626 131.246L309.098 132.566L309.81 132.481L309.963 132.936L308.103 133.539L307.949 133.085L308.59 132.751L308.171 131.4L305.802 132.188L306.625 134.429L307.796 134.513L307.799 135.018L306.322 135.22L304.847 130.785L305.247 130.662L305.538 131.291L310.556 129.697Z" fill="#313131"/>
<path d="M312.713 136.381L312.252 135.018L310.452 135.225L310.321 134.684L312.512 134.216L313.955 139.285L311.791 139.991L311.649 139.494L313.275 138.736L312.923 137.31L307.811 138.741L308.05 139.906L307.65 140.029L306.776 136.948L307.176 136.826L307.546 137.843L312.713 136.381Z" fill="#313131"/>
<path d="M311.387 143.555L311.307 143.167C311.202 143.046 310.988 142.989 310.688 142.909C310.388 142.828 310.034 142.779 309.594 142.708C309.154 142.636 308.854 142.555 308.64 142.498C308.426 142.44 308.309 142.363 308.289 142.266L308.039 141.143L308.428 141.064L308.573 141.378C308.604 141.432 308.721 141.51 308.881 141.598C309.053 141.644 309.31 141.713 309.641 141.848C310.026 141.951 310.369 142.043 310.669 142.123C310.914 142.235 311.117 142.335 311.265 142.467C311.283 142.058 311.418 141.727 311.627 141.462C311.89 141.165 312.216 140.977 312.604 140.897C313.241 140.747 313.767 140.842 314.095 141.159C314.423 141.476 314.694 142.008 314.864 142.742C314.916 142.894 314.944 143.131 314.972 143.368C314.989 143.648 315.029 143.842 315.08 143.994L315.361 145.171L314.961 145.293L314.682 144.622L309.585 145.827L309.701 146.592L309.324 146.629L308.73 144.22L309.118 144.141L309.374 144.898L311.535 144.375L311.387 143.555ZM314.541 143.436C314.512 143.199 314.484 142.962 314.444 142.768C314.334 142.325 314.177 142.053 313.954 141.856C313.732 141.658 313.366 141.652 312.923 141.763C312.48 141.874 312.154 142.062 311.988 142.339C311.822 142.616 311.773 142.97 311.884 143.413C311.995 143.856 312.055 144.147 312.117 144.256L314.623 143.642L314.541 143.436Z" fill="#313131"/>
<path d="M315.527 148.153L315.217 146.739L313.409 146.805L313.321 146.277L315.552 146.003L316.563 151.14L314.36 151.651L314.272 151.123L315.949 150.516L315.737 149.082L310.514 150.07L310.655 151.255L310.267 151.335L309.642 148.183L310.031 148.104L310.347 149.153L315.527 148.153Z" fill="#313131"/>
<path d="M311.307 156.021C311.519 155.572 311.859 155.159 312.294 154.908C312.74 154.614 313.291 154.441 313.917 154.333C314.531 154.268 315.122 154.288 315.613 154.512C316.116 154.692 316.53 155.033 316.878 155.447C317.226 155.862 317.411 156.371 317.487 156.942C317.555 157.374 317.558 157.879 317.483 158.502L317.456 158.77L315.96 158.874L315.883 158.303L316.9 157.933C316.966 157.858 317.012 157.687 317.015 157.504C317.018 157.321 317.044 157.053 316.973 156.804C316.925 156.47 316.78 156.156 316.526 155.904C316.272 155.652 315.952 155.475 315.524 155.36C315.096 155.245 314.633 155.259 314.073 155.293C313.544 155.381 313.101 155.491 312.678 155.7C312.255 155.908 311.961 156.15 311.741 156.458C311.52 156.766 311.46 157.163 311.496 157.541C311.556 157.832 311.584 158.069 311.678 158.232C311.73 158.383 311.835 158.504 311.941 158.624L312.797 158.853L312.788 159.402L311.563 159.349C311.543 159.252 311.503 159.057 311.378 158.84C311.295 158.634 311.201 158.471 311.161 158.277C311.122 158.083 311.039 157.877 311.022 157.597C311.031 157.049 311.084 156.512 311.307 156.021Z" fill="#313131"/>
<path d="M318.024 162.136L317.604 162.161L317.413 161.33L313.18 161.71L314.256 162.32L317.447 164.46L317.684 164.432L317.708 163.658L318.128 163.633L318.336 165.938L317.916 165.963L317.766 165.326L312.541 165.809L312.528 166.54L312.108 166.565L311.911 164.217L312.331 164.192L312.502 164.926L316.778 164.557L315.733 164.001L312.511 161.807L312.231 161.823L312.207 162.597L311.787 162.623L311.59 160.274L312.01 160.249L312.149 160.929L317.374 160.447L317.418 159.77L317.838 159.745L318.024 162.136Z" fill="#313131"/>
<path d="M318.601 171.289L316.404 171.435L316.37 170.875L318.064 170.548L318.052 168.709L312.756 168.942L312.732 170.405L312.312 170.43L312.141 167.125L312.561 167.1L312.686 168.005L317.896 167.749L317.955 166.846L318.375 166.821L318.601 171.289Z" fill="#313131"/>
<path d="M318.114 172.765L318.2 172.1L318.609 172.117L318.592 174.408L318.183 174.39L318.098 173.679L315.85 173.674L315.833 176.653L318.081 176.658L318.167 175.993L318.576 176.011L318.57 178.259L318.162 178.241L318.065 177.572L312.826 177.592L312.74 178.257L312.331 178.24L312.337 175.992L312.745 176.009L312.83 176.721L315.261 176.729L315.279 173.75L312.848 173.741L312.75 174.45L312.342 174.432L312.316 172.13L312.724 172.147L312.821 172.816L318.114 172.765Z" fill="#313131"/>
<path d="M318.584 181.292L318.569 182.206L312.676 183.979L312.581 184.504L312.173 184.487L312.264 182.262L312.673 182.279L312.715 182.979L314 182.635L314.106 180.184L312.898 179.723L312.801 180.431L312.392 180.414L312.469 178.414L312.877 178.432L312.922 178.949L318.584 181.292ZM317.209 181.796L317.944 181.626L317.184 181.376L314.512 180.385L314.401 182.513L317.209 181.796Z" fill="#313131"/>
<path d="M314.24 186.877C313.469 186.671 312.924 186.478 312.541 186.192C312.35 186.049 312.202 185.918 312.151 185.766C312.057 185.603 312.06 185.421 312.063 185.238C312.089 184.969 312.092 184.786 312.169 184.669L312.857 184.67C312.823 184.799 312.808 185.024 312.782 185.293C312.76 185.379 312.779 185.476 312.842 185.584C312.862 185.681 312.936 185.747 313.053 185.825C313.658 186.308 315.04 186.632 317.06 186.806L317.737 186.85L317.903 185.885L318.312 185.902L317.886 190.746L317.478 190.729L317.459 189.943L312.26 189.468L312.085 190.294L311.677 190.276L311.914 187.677L312.323 187.695L312.319 188.566L317.517 189.041L317.653 187.333L316.891 187.266C315.86 187.173 314.98 187.029 314.24 186.877Z" fill="#313131"/>
<path d="M314.98 194.053C314.893 194.719 314.658 195.253 314.255 195.558C313.895 195.875 313.409 195.974 312.829 195.91C312.207 195.835 311.739 195.526 311.445 195.08C311.151 194.634 311.075 194.063 311.161 193.398C311.184 193.312 311.207 193.226 311.187 193.129C311.168 193.032 311.233 192.958 311.268 192.829C311.348 192.529 311.386 192.218 311.454 191.961L311.624 190.813L312.021 190.873L312.009 191.605L317.224 192.359L317.451 191.685L317.848 191.746L317.485 194.128L317.088 194.067L317.037 193.227L315.095 192.937L314.98 194.053ZM311.719 192.858C311.696 192.944 311.65 193.115 311.647 193.298C311.564 193.781 311.655 194.127 311.897 194.421C312.14 194.716 312.459 194.893 312.953 194.934C313.393 195.006 313.782 194.926 314.022 194.715C314.305 194.515 314.44 194.184 314.523 193.701L314.655 192.865L311.822 192.473C311.776 192.644 311.742 192.773 311.719 192.858ZM316.65 199.643L316.253 199.582L316.277 198.808L311.104 198.065L310.898 198.836L310.501 198.775L310.832 196.339L311.229 196.4L311.205 197.174L316.378 197.917L316.584 197.146L316.981 197.206L316.65 199.643Z" fill="#313131"/>
<path d="M315.383 203.343L315.641 202.724L316.026 202.827L315.515 205.077L315.13 204.974L315.185 204.254L312.978 203.755L312.337 206.659L314.545 207.158L314.802 206.539L315.188 206.642L314.688 208.85L314.303 208.746L314.346 208.069L309.223 206.972L309.008 207.603L308.623 207.5L309.122 205.292L309.508 205.396L309.464 206.073L311.854 206.575L312.495 203.671L310.105 203.168L309.867 203.885L309.481 203.782L309.992 201.531L310.378 201.635L310.334 202.312L315.383 203.343Z" fill="#313131"/>
<path d="M314.017 211.7L313.776 212.599L307.657 213.163L307.433 213.654L307.048 213.551L307.579 211.398L307.964 211.501L307.866 212.209L309.169 212.145L309.757 209.778L308.65 209.114L308.38 209.776L307.995 209.673L308.469 207.734L308.854 207.837L308.802 208.374L314.017 211.7ZM312.594 211.869L313.38 211.85L312.697 211.484L310.291 210.013L309.783 212.08L312.594 211.869Z" fill="#313131"/>
<path d="M311.526 218.424L311.939 217.57L312.313 217.716L311.61 219.824L307.643 219.725L306.557 219.663L307.505 220.239L310.736 222.573L310.034 224.681L309.66 224.534L309.858 223.623L304.669 222.6L304.357 223.251L303.983 223.105L304.742 220.784L305.116 220.93L304.964 221.669L308.682 222.528L310.29 222.867L309.248 222.129L305.53 219.388L305.71 218.885L309.98 218.882L311.669 218.921L310.153 218.239L306.661 216.707L306.314 217.486L305.94 217.34L306.631 215.276L307.005 215.422L306.865 216.119L311.526 218.424Z" fill="#313131"/>
<path d="M308.853 227.715L308.526 228.592L302.388 228.37L302.133 228.807L301.759 228.661L302.59 226.588L302.964 226.734L302.78 227.42L304.091 227.495L304.98 225.208L303.961 224.384L303.606 225.024L303.232 224.878L303.962 223.008L304.336 223.154L304.242 223.679L308.853 227.715ZM307.39 227.691L308.153 227.757L307.536 227.317L305.351 225.537L304.585 227.536L307.39 227.691Z" fill="#313131"/>
<path d="M306.569 231.786L306.944 231.244L307.318 231.39L306.859 232.415C306.759 232.617 306.713 232.789 306.624 232.949C306.501 233.237 306.432 233.494 306.321 233.739C305.986 234.476 305.634 234.933 305.211 235.141C304.799 235.306 304.336 235.32 303.76 235.073C303.354 234.873 303.046 234.652 302.815 234.315C302.584 233.978 302.493 233.632 302.468 233.212C302.443 232.792 302.558 232.364 302.758 231.958C302.847 231.799 302.881 231.67 302.97 231.51C303.059 231.35 303.082 231.265 303.136 231.233L301.449 230.506L300.905 231.508L300.531 231.362L301.659 228.864L302.033 229.01L301.807 229.684L306.569 231.786ZM303.163 232.159C302.963 232.564 302.957 232.93 303.079 233.33C303.201 233.73 303.541 234.005 304.118 234.251C304.566 234.463 304.932 234.469 305.192 234.355C305.506 234.21 305.726 233.902 305.938 233.453C306.027 233.294 306.073 233.122 306.13 232.908C306.165 232.78 306.188 232.694 306.199 232.651L303.444 231.454C303.41 231.582 303.298 231.828 303.163 232.159Z" fill="#313131"/>
<path d="M299.147 234.985C299.581 234.734 300.078 234.592 300.584 234.59C301.132 234.599 301.689 234.748 302.255 235.037C302.82 235.326 303.276 235.678 303.57 236.124C303.907 236.582 304.049 237.079 304.094 237.596C304.139 238.113 304.044 238.638 303.766 239.161C303.566 239.566 303.268 239.991 302.905 240.491L302.75 240.725L301.429 240.004L301.652 239.513L302.723 239.799C302.82 239.78 302.94 239.674 303.072 239.526C303.203 239.377 303.304 239.175 303.458 238.941C303.636 238.621 303.673 238.31 303.594 237.921C303.545 237.587 303.357 237.261 303.084 236.912C302.798 236.606 302.416 236.32 301.893 236.042C301.402 235.819 300.943 235.65 300.503 235.578C300.063 235.506 299.643 235.531 299.274 235.708C298.917 235.842 298.666 236.095 298.465 236.501C298.342 236.789 298.242 236.992 298.239 237.175C298.193 237.346 298.201 237.486 298.252 237.637L298.854 238.304L298.557 238.729L297.558 238.002C297.592 237.874 297.638 237.702 297.696 237.488C297.753 237.274 297.756 237.091 297.813 236.877C297.859 236.706 297.971 236.46 298.083 236.215C298.36 235.692 298.701 235.279 299.147 234.985Z" fill="#313131"/>
<path d="M299.314 247.379L298.963 247.148L299.31 246.368L295.656 244.241L296.186 245.347L297.513 248.962L297.715 249.063L298.199 248.458L298.55 248.69L297.376 250.671L297.025 250.439L297.283 249.819L292.756 247.183L292.327 247.757L291.964 247.568L293.149 245.544L293.512 245.733L293.188 246.426L296.873 248.608L296.32 247.587L295.005 243.929L294.728 243.763L294.233 244.411L293.871 244.222L295.067 242.155L295.43 242.344L295.16 243.007L299.687 245.643L300.105 245.112L300.456 245.344L299.314 247.379Z" fill="#313131"/>
<path d="M296.287 252.169C296.175 252.414 296.117 252.629 296.029 252.789C295.94 252.948 295.851 253.108 295.774 253.225C295.388 253.81 295.004 254.213 294.593 254.378C294.181 254.543 293.773 254.525 293.379 254.282C292.985 254.039 292.797 253.713 292.717 253.324C292.638 252.936 292.687 252.582 292.845 252.165C292.547 252.59 292.198 252.864 291.81 252.943C291.421 253.023 291.067 252.974 290.716 252.742C290.205 252.422 289.9 252.018 289.855 251.501C289.798 251.027 289.959 250.428 290.422 249.725C290.588 249.448 290.786 249.226 290.983 249.003C291.169 248.824 291.343 248.687 291.463 248.581C291.583 248.476 291.649 248.401 291.692 248.413L292.828 249.314L292.596 249.665L291.56 249.25C291.288 249.406 291.037 249.66 290.739 250.086C290.519 250.394 290.481 250.705 290.541 250.997C290.6 251.288 290.854 251.54 291.248 251.783C291.525 251.949 291.825 252.029 292.159 251.981C292.493 251.933 292.788 251.691 293.031 251.297L293.352 250.786L293.746 251.029L293.502 251.423C293.359 251.614 293.302 251.828 293.245 252.042C293.23 252.268 293.258 252.505 293.341 252.711C293.423 252.917 293.603 253.103 293.837 253.257C294.145 253.478 294.457 253.515 294.705 253.444C294.954 253.373 295.194 253.162 295.415 252.853C295.558 252.662 295.658 252.46 295.661 252.277C295.707 252.105 295.698 251.965 295.636 251.857L295.054 251.288L295.351 250.862L296.47 251.484C296.444 251.752 296.355 251.912 296.287 252.169Z" fill="#313131"/>
<path d="M291.875 258.011L292.378 257.503L292.729 257.735L292.068 258.66C291.936 258.808 291.836 259.011 291.67 259.288C291.516 259.522 291.427 259.681 291.35 259.798C290.909 260.415 290.483 260.806 290.083 260.928C289.683 261.05 289.286 260.99 288.946 260.715C288.638 260.495 288.396 260.201 288.316 259.812C288.225 259.466 288.274 259.112 288.42 258.738C288.123 259.163 287.774 259.437 287.374 259.559C286.985 259.639 286.588 259.579 286.249 259.304C285.792 258.952 285.541 258.518 285.496 258C285.451 257.483 285.677 256.81 286.238 256.087C286.37 255.939 286.459 255.779 286.59 255.631C286.865 255.291 287.019 255.057 287.074 255.026L287.735 254.101L288.086 254.333L287.742 254.93L291.875 258.011ZM286.504 256.296C286.152 256.753 286.037 257.181 286.042 257.504C286.048 257.827 286.279 258.164 286.63 258.396C286.969 258.671 287.312 258.762 287.603 258.703C287.895 258.643 288.189 258.401 288.475 258.018C288.827 257.562 289.005 257.242 289.082 257.125L287.041 255.66C286.987 255.691 286.79 255.914 286.504 256.296ZM289.233 257.762L288.947 258.145C288.726 258.453 288.646 258.753 288.706 259.044C288.765 259.335 288.965 259.619 289.273 259.839C289.581 260.059 289.881 260.139 290.161 260.123C290.41 260.052 290.693 259.852 290.99 259.427C291.122 259.278 291.222 259.076 291.311 258.916L291.4 258.756L289.519 257.38C289.496 257.465 289.376 257.571 289.233 257.762Z" fill="#313131"/>
<path d="M287.92 264.205L287.359 264.927L281.52 262.903L281.148 263.263L280.809 262.988L282.193 261.247L282.533 261.522L282.147 262.107L283.354 262.568L284.882 260.636L284.158 259.57L283.654 260.078L283.315 259.803L284.556 258.253L284.896 258.528L284.63 259.008L287.92 264.205ZM286.529 263.74L287.234 264.021L286.761 263.389L285.187 261.039L283.868 262.706L286.529 263.74Z" fill="#313131"/>
<path d="M280.099 264.267C280.596 264.125 281.102 264.122 281.616 264.26C282.13 264.398 282.641 264.718 283.129 265.125C283.617 265.531 283.953 265.988 284.138 266.497C284.323 267.006 284.368 267.523 284.273 268.048C284.179 268.574 283.912 269.053 283.572 269.467C283.297 269.806 282.883 270.154 282.414 270.534L282.185 270.702L281.095 269.63L281.478 269.227L282.437 269.76C282.535 269.74 282.686 269.689 282.86 269.552C283.023 269.458 283.209 269.278 283.364 269.044C283.616 268.79 283.75 268.459 283.756 268.093C283.805 267.739 283.714 267.393 283.495 267.013C283.275 266.633 283.013 266.241 282.556 265.889C282.143 265.549 281.76 265.263 281.343 265.105C280.926 264.948 280.529 264.887 280.152 264.924C279.775 264.961 279.449 265.149 279.175 265.488C278.977 265.711 278.834 265.902 278.788 266.073C278.7 266.233 278.708 266.373 278.674 266.502L279.058 267.293L278.644 267.641L277.885 266.704C277.951 266.629 278.04 266.47 278.151 266.224C278.252 266.021 278.34 265.861 278.429 265.702C278.518 265.542 278.661 265.351 278.858 265.128C279.144 264.746 279.602 264.409 280.099 264.267Z" fill="#313131"/>
<path d="M278.334 273.251C278.476 273.748 278.49 274.211 278.375 274.639C278.26 275.068 278.06 275.473 277.7 275.79C277.316 276.192 276.882 276.443 276.439 276.554C275.996 276.665 275.502 276.624 275.042 276.455C274.583 276.286 274.115 275.977 273.669 275.582C273.193 275.133 272.825 274.621 272.652 274.07C272.466 273.561 272.379 273.033 272.505 272.561C272.588 272.079 272.843 271.642 273.172 271.271C273.555 270.869 273.99 270.618 274.444 270.464C274.887 270.353 275.381 270.394 275.841 270.563C276.3 270.732 276.768 271.041 277.214 271.436L278.166 270.452L276.377 268.733L275.8 269.175L275.514 268.869L277.113 267.185L277.41 267.448L276.981 268.022L280.738 271.646L281.261 271.235L281.547 271.541L279.959 273.182L279.674 272.876L280.103 272.302L278.463 270.715L277.51 271.699C277.952 272.277 278.192 272.754 278.334 273.251ZM277.805 274.027C277.674 273.487 277.286 272.879 276.63 272.244C276.048 271.674 275.451 271.331 274.883 271.225C274.315 271.118 273.817 271.26 273.434 271.663C273.051 272.065 272.936 272.493 273.067 273.033C273.198 273.573 273.585 274.182 274.285 274.829C274.867 275.398 275.42 275.73 275.977 275.879C276.534 276.028 276.988 275.875 277.372 275.472C277.755 275.07 277.881 274.599 277.805 274.027Z" fill="#313131"/>
<path d="M270.098 278.115C269.744 278.066 269.273 277.939 268.716 277.79C268.331 277.687 268.031 277.606 267.817 277.549C267.645 277.503 267.505 277.512 267.397 277.574L267.082 277.72L266.797 277.414L267.541 276.695C267.649 276.632 267.801 276.581 268.101 276.661C268.358 276.73 268.743 276.833 269.257 276.971C269.803 277.163 270.231 277.278 270.585 277.327C270.885 277.407 271.122 277.379 271.254 277.23L271.625 276.871L269.988 275.101L269.367 275.531L269.082 275.225L270.786 273.662L271.072 273.968L270.611 274.487L274.172 278.334L274.738 277.934L275.023 278.24L273.373 279.772L273.088 279.466L273.517 278.893L271.879 277.123L271.333 277.619L271.735 280.573L272.301 280.174L272.586 280.48L271.057 281.906L270.771 281.6L271.189 281.069L270.853 278.041C270.775 278.158 270.453 278.163 270.098 278.115Z" fill="#313131"/>
<path d="M265.916 278.646C266.39 278.59 266.873 278.673 267.309 278.928C267.801 279.151 268.203 279.535 268.625 280.015C269.047 280.495 269.318 281.027 269.449 281.567C269.579 282.107 269.582 282.613 269.413 283.072C269.244 283.532 268.989 283.969 268.574 284.317C267.919 284.876 267.216 285.101 266.508 285.003C265.8 284.905 265.14 284.453 264.464 283.721C264.042 283.24 263.771 282.709 263.641 282.169C263.51 281.629 263.508 281.123 263.688 280.62C263.826 280.106 264.112 279.724 264.527 279.376C264.976 278.9 265.442 278.703 265.916 278.646ZM268.873 282.515C268.797 281.943 268.464 281.303 267.862 280.637C267.302 279.982 266.76 279.607 266.215 279.415C265.669 279.223 265.184 279.323 264.769 279.671C264.355 280.019 264.185 280.478 264.262 281.05C264.338 281.621 264.672 282.261 265.262 282.97C265.821 283.625 266.364 284 266.909 284.192C267.466 284.341 267.952 284.242 268.366 283.894C268.781 283.546 268.95 283.086 268.873 282.515Z" fill="#313131"/>
<path d="M264.955 286.515L265.553 286.17L265.827 286.519L264.955 287.203C264.792 287.297 264.606 287.477 264.408 287.7C264.223 287.879 264.048 288.016 263.94 288.079C263.308 288.552 262.83 288.792 262.41 288.817C261.99 288.842 261.628 288.653 261.354 288.304C261.112 288.01 260.978 287.653 260.984 287.287C260.99 286.922 261.125 286.59 261.388 286.294C260.973 286.642 260.562 286.807 260.153 286.789C259.745 286.772 259.382 286.583 259.109 286.234C258.772 285.776 258.63 285.279 258.725 284.754C258.82 284.228 259.249 283.654 259.946 283.107C260.121 282.97 260.284 282.876 260.404 282.77C260.753 282.497 260.97 282.371 261.036 282.297L261.908 281.612L262.139 281.95L261.635 282.458L264.955 286.515ZM260.275 283.424C259.817 283.761 259.585 284.112 259.536 284.466C259.487 284.82 259.578 285.166 259.852 285.515C260.126 285.864 260.403 286.03 260.714 286.067C261.025 286.105 261.34 285.959 261.743 285.654C262.2 285.318 262.495 285.075 262.572 284.958L261.035 282.985C260.864 282.939 260.635 283.108 260.275 283.424ZM262.497 285.581L262.148 285.855C261.854 286.097 261.688 286.374 261.65 286.685C261.613 286.997 261.715 287.299 262.001 287.605C262.243 287.9 262.52 288.066 262.788 288.092C263.057 288.118 263.371 287.973 263.774 287.668C263.949 287.531 264.08 287.382 264.255 287.245L264.375 287.14L262.943 285.287C262.792 285.338 262.672 285.444 262.497 285.581Z" fill="#313131"/>
<g style="mix-blend-mode:overlay">
<circle cx="78.0602" cy="75.5852" r="0.901438" fill="#313131"/>
</g>
<g style="mix-blend-mode:overlay">
<circle cx="260.375" cy="64.0335" r="0.901438" fill="#313131"/>
</g>
</g>
</svg>
